<?xml version="1.0" standalone="no"?>
<!DOCTYPE svg PUBLIC "-//W3C//DTD SVG 1.1//EN" "http://www.w3.org/Graphics/SVG/1.1/DTD/svg11.dtd" >
<svg>
<metadata>
Created by FontForge 20110222 at Mon May  5 12:04:52 2014
 By Orthosie Webhosting
Copyright 2003 Adobe Systems Incorporated. All rights reserved.
</metadata>
<defs>
<font id="AcademyCItalicCyrillic" horiz-adv-x="655" >
  <font-face 
    font-family="AcademyCItalicCyrillic"
    font-weight="400"
    font-style="italic"
    font-stretch="normal"
    units-per-em="1000"
    panose-1="2 0 5 3 7 0 0 9 0 3"
    ascent="800"
    descent="-200"
    x-height="393"
    cap-height="700"
    bbox="-207 -259 1239 947"
    underline-thickness="50"
    underline-position="-50"
    slope="-12"
    unicode-range="U+0020-25CA"
  />
<missing-glyph horiz-adv-x="589" 
d="M89 0v700h500v-700h-500zM339 395l170 255h-340zM369 350l170 -255v510zM169 50h340l-170 255zM139 605v-510l170 255z" />
    <glyph glyph-name=".notdef" horiz-adv-x="589" 
d="M89 0v700h500v-700h-500zM339 395l170 255h-340zM369 350l170 -255v510zM169 50h340l-170 255zM139 605v-510l170 255z" />
    <glyph glyph-name=".null" horiz-adv-x="0" 
 />
    <glyph glyph-name="nonmarkingreturn" horiz-adv-x="333" 
 />
    <glyph glyph-name="space" unicode=" " horiz-adv-x="233" 
 />
    <glyph glyph-name="exclam" unicode="!" horiz-adv-x="392" 
d="M125 149l84 551h113l-157 -551h-40zM70 48q0 22 17 39t39 17t39 -17t17 -39t-17 -39t-39 -17t-39 17t-17 39z" />
    <glyph glyph-name="quotedbl" unicode="&#x22;" horiz-adv-x="447" 
d="M212 700l-106 -204h-36l52 204h90zM377 700l-106 -204h-36l52 204h90z" />
    <glyph glyph-name="numbersign" unicode="#" horiz-adv-x="833" 
d="M508 0h-62l34 194h-188l-34 -194h-62l34 194h-160l9 48h160l40 225h-160l9 48h160l33 185h62l-33 -185h188l33 185h62l-33 -185h163l-9 -48h-163l-40 -225h163l-9 -48h-163zM489 242l40 225h-188l-40 -225h188z" />
    <glyph glyph-name="dollar" unicode="$" 
d="M278 -76h-45l17 76q-28 2 -57 9t-58 20.5t-47 38.5t-18 56q0 45 24 69t55 24q25 0 39.5 -14t14.5 -36q0 -16 -20 -42q-14 -19 -14 -26q0 -19 21.5 -36t70.5 -16l61 299q-75 32 -113 68.5t-38 93.5q0 75 67 136.5t160 63.5l14 68h45l-14 -68q40 -3 70 -15.5t44.5 -30
t21 -32.5t6.5 -28q0 -33 -18 -60t-53 -27q-23 0 -34 13.5t-11 31.5q0 14 15 42q8 14 8 22q0 16 -15.5 27t-44.5 11l-47 -228q18 -9 44 -21t41 -21t32 -24q50 -46 50 -118q0 -87 -73.5 -161t-184.5 -89zM344 452l44 210q-58 -5 -93.5 -38t-35.5 -80q0 -27 17.5 -49t67.5 -43z
M365 328l-59 -281q66 8 114.5 59t48.5 103q0 45 -32 75.5t-72 43.5z" />
    <glyph glyph-name="percent" unicode="%" horiz-adv-x="931" 
d="M247 687q51 0 98 -34q51 -37 128 -37q54 0 108 39q15 11 28 25t21 21t16 7q12 0 22.5 -9t10.5 -20q0 -8 -6 -18.5t-21.5 -36t-30.5 -56.5q-65 -137 -104 -214t-50.5 -98t-49.5 -101t-111 -243l-110 -46q15 26 69 116.5t79 134.5t72 128.5t91 173.5t92 194l-5 4
q-75 -41 -118 -41q-48 0 -98 15l-7 -4q4 -20 4 -46q0 -88 -47 -166t-120 -78q-57 0 -97.5 42t-40.5 119q0 86 51 157.5t126 71.5zM260 641q-38 0 -65.5 -41t-38.5 -88t-11 -86q0 -46 20.5 -65.5t43.5 -19.5q45 0 82.5 65t37.5 146q0 89 -69 89zM734 332q54 0 90.5 -38.5
t36.5 -111.5q0 -85 -46.5 -162.5t-119.5 -77.5q-58 0 -98 41.5t-40 119.5q0 87 51 158t126 71zM747 286q-38 0 -65.5 -41t-38.5 -88t-11 -86q0 -46 20.5 -65.5t43.5 -19.5q43 0 81 57.5t38 140.5q0 102 -68 102z" />
    <glyph glyph-name="ampersand" unicode="&#x26;" horiz-adv-x="872" 
d="M789 430l-6 -28q-41 -8 -74 -39q-12 -11 -24 -26t-19.5 -26.5t-21.5 -34t-21 -33.5q-41 -62 -92 -120q57 -80 144 -80q56 0 111 37l16 -26q-75 -62 -173 -62q-93 0 -160 75q-103 -75 -195 -75q-79 0 -141.5 53t-62.5 143q0 96 69.5 158t194.5 106q-3 22 -3 46
q0 101 49 155.5t119 54.5q55 0 89.5 -34t34.5 -81q0 -116 -201 -155q26 -166 84 -279q42 42 84.5 105t42.5 95q0 16 -13 29.5t-28 13.5h-12l6 28h203zM511 670q-38 0 -68.5 -30.5t-30.5 -104.5q0 -41 3 -61q65 9 107.5 51t42.5 88q0 25 -16.5 41t-37.5 16zM334 416
q-69 -25 -117 -78t-48 -123q0 -67 43 -108t105 -41q66 0 121 40q-76 127 -104 310z" />
    <glyph glyph-name="quotesingle" unicode="'" horiz-adv-x="282" 
d="M212 700l-106 -204h-36l52 204h90z" />
    <glyph glyph-name="parenleft" unicode="(" horiz-adv-x="452" 
d="M257 -184q-21 0 -58.5 29.5t-61.5 57.5q-97 113 -97 238q0 248 201 418q40 33 108.5 75t94.5 42q5 0 7 -2.5t2 -5t-0.5 -7t-0.5 -6.5q0 -4 -23 -20q-181 -130 -252 -289q-38 -86 -38 -208q0 -123 79 -235q9 -13 23.5 -29.5t23.5 -27t9 -16.5q0 -5 -4.5 -9.5t-12.5 -4.5z
" />
    <glyph glyph-name="parenright" unicode=")" horiz-adv-x="502" 
d="M245 676q24 0 73 -40q22 -18 43 -42.5t45.5 -63.5t40 -93.5t15.5 -115.5q0 -69 -21.5 -134t-53 -113.5t-75.5 -93t-81.5 -73t-78.5 -52.5q-66 -39 -94 -39q-5 0 -7 2.5t-2 5t0.5 7t0.5 6.5q0 5 6.5 10t24 16.5t32.5 22.5q42 32 81.5 72.5t79.5 97t64.5 128t24.5 145.5
q0 151 -79 260q-9 13 -23.5 29.5t-23.5 27t-9 16.5q0 5 4.5 9.5t12.5 4.5z" />
    <glyph glyph-name="asterisk" unicode="*" horiz-adv-x="474" 
d="M181 653q5 25 22.5 36t33.5 11t33.5 -11t22.5 -36q-21 -23 -32.5 -67t-10.5 -77q3 -1 9 -5q34 8 70 33t54 52q33 2 49 -16t16 -37q0 -34 -30 -55q-26 11 -72 11t-79 -14q0 -7 -2 -10q5 -10 19 -24l6.5 -6.5l8.5 -8.5t10 -9.5t12.5 -10.5t13.5 -10t15 -9.5t16 -7t18 -5.5
q15 -31 -3.5 -57t-50.5 -26q-20 0 -37 16q3 31 -12.5 73.5t-37.5 68.5q-6 -2 -12 0q-22 -26 -37.5 -68.5t-12.5 -73.5q-17 -16 -37 -16q-32 0 -50.5 26t-3.5 57q9 2 18 5.5t16 7t15 9.5t13.5 10t12.5 10.5t10 9.5l8.5 8.5l6.5 6.5q14 14 19 24q-2 3 -2 10q-33 14 -79 14
t-72 -11q-30 21 -30 55q0 19 16 37t49 16q18 -27 54 -52t70 -33q6 4 9 5q1 33 -10.5 77t-32.5 67z" />
    <glyph glyph-name="plus" unicode="+" horiz-adv-x="626" 
d="M70 355h218v218h50v-218h218v-50h-218v-218h-50v218h-218v50z" />
    <glyph glyph-name="comma" unicode="," horiz-adv-x="252" 
d="M88 -90l-12 22q37 21 61 58l-3 3q-8 -2 -12 -2q-20 0 -36 15.5t-16 40.5t17 40.5t39 15.5t39 -17t17 -50q0 -74 -94 -126z" />
    <glyph glyph-name="hyphen" unicode="-" horiz-adv-x="369" 
d="M70 139l21 91h134q14 0 21 1t16.5 7t15.5 19h21l-21 -93h-135q-37 0 -48 -25h-25z" />
    <glyph glyph-name="period" unicode="." horiz-adv-x="252" 
d="M70 47q0 23 17 39.5t39 16.5t39 -16.5t17 -39.5t-17 -39.5t-39 -16.5t-39 16.5t-17 39.5z" />
    <glyph glyph-name="slash" unicode="/" horiz-adv-x="548" 
d="M90 -184h-59l535 884h59z" />
    <glyph glyph-name="zero" unicode="0" horiz-adv-x="547" 
d="M213 -8q-64 0 -108.5 56.5t-44.5 174.5q0 57 15 127q35 162 115.5 260t173.5 98q67 0 110 -56t43 -175q0 -123 -53 -254q-43 -107 -111 -169t-140 -62zM222 33q48 0 85 51q53 73 94 267q27 130 27 217q0 12 -2 25t-8.5 31.5t-22.5 30.5t-40 12q-37 0 -68 -29.5
t-52.5 -83.5t-34 -99t-25.5 -106q-26 -124 -26 -188q0 -128 73 -128z" />
    <glyph glyph-name="one" unicode="1" horiz-adv-x="380" 
d="M50 0l6 34q61 6 75 77l100 481q-48 -29 -118 -59l7 41q48 25 73.5 39t59 39t62.5 56h30l-124 -597q-3 -15 -3 -32q0 -16 6 -25.5t13 -13t19 -5.5q1 0 3 -0.5t3 -0.5l-6 -34h-206z" />
    <glyph glyph-name="two" unicode="2" horiz-adv-x="544" 
d="M453 155l-71 -155h-392l8 38q274 248 372 411q39 66 39 119q0 39 -23.5 59t-63.5 20q-73 0 -156 -89l-26 19q111 131 232 131q74 0 108 -34.5t34 -76.5q0 -74 -62 -160q-44 -60 -149.5 -163.5t-200.5 -183.5l-1 -4h181q50 0 79 13.5t58 55.5h34z" />
    <glyph glyph-name="three" unicode="3" horiz-adv-x="491" 
d="M140 593l-17 20q42 43 94 69t99 26q58 0 101.5 -26.5t43.5 -79.5q0 -62 -37.5 -101.5t-109.5 -74.5v-6q17 -3 33 -10t34.5 -20.5t30 -39t11.5 -59.5q0 -46 -23 -96t-65.5 -96t-114 -76t-157.5 -30q-52 0 -83 10l6 28q13 -2 65 -2q76 0 146 42q63 37 99 100q31 54 31 117
q0 44 -31 64t-70 20q-26 0 -59 -9l-9 24q107 45 166.5 92t59.5 114q0 27 -21.5 47.5t-65.5 20.5q-36 0 -79 -19t-78 -49z" />
    <glyph glyph-name="four" unicode="4" horiz-adv-x="536" 
d="M486 327l-30 -136h-87l-40 -191h-91l40 191h-228l15 81l343 436h68l-90 -435h12q37 0 57 54h31zM295 273l66 315h-4l-246 -312v-3h184z" />
    <glyph glyph-name="five" unicode="5" horiz-adv-x="486" 
d="M10 2l8 33q24 -7 52 -7q70 0 131 42q61 41 91 103t30 113q0 61 -26.5 98.5t-80.5 37.5q-55 0 -91 -38l-17 8l98 316h131q18 0 26 0.5t17 5.5t12 15h30l-23 -99h-177l-56 -180q54 19 105 19q66 0 111 -41t45 -110q0 -81 -58 -168.5t-161 -131.5q-61 -26 -139 -26
q-26 0 -58 10z" />
    <glyph glyph-name="six" unicode="6" horiz-adv-x="508" 
d="M466 710l12 -29q-93 -41 -175 -127t-121 -174h6q51 46 124 46q58 0 100 -40t42 -112q0 -107 -74 -194.5t-165 -87.5q-68 0 -116.5 52.5t-48.5 151.5q0 86 46 182.5t120 174.5q114 119 250 157zM291 392q-43 0 -77.5 -29t-52.5 -72.5t-27.5 -86t-9.5 -76.5q0 -50 25.5 -76
t60.5 -26q50 0 89.5 47.5t58 107.5t18.5 114q0 52 -24.5 74.5t-60.5 22.5z" />
    <glyph glyph-name="seven" unicode="7" horiz-adv-x="458" 
d="M95 535l43 165h350l-6 -31l-285 -669h-117v15l339 605h-188q-49 0 -70.5 -17.5t-35.5 -67.5h-30z" />
    <glyph glyph-name="eight" unicode="8" horiz-adv-x="560" 
d="M220 401l2 3q-31 24 -48 59.5t-17 70.5q0 67 51.5 120.5t143.5 53.5q60 0 109 -37.5t49 -107.5q0 -98 -127 -164l-1 -6q59 -44 85.5 -82.5t26.5 -93.5q0 -83 -63 -154t-161 -71q-90 0 -155 53.5t-65 138.5q0 151 170 217zM357 411q95 58 95 155q0 45 -28.5 78.5
t-80.5 33.5t-87.5 -30t-35.5 -76q0 -36 22.5 -68.5t47.5 -50.5t67 -42zM242 384q-65 -26 -97 -83.5t-32 -115.5q0 -64 41.5 -109t117.5 -45q58 0 105.5 39t47.5 107q0 107 -183 207z" />
    <glyph glyph-name="nine" unicode="9" horiz-adv-x="488" 
d="M62 -8l-12 29q93 41 175 127t121 174h-6q-51 -46 -124 -46q-58 0 -100 40t-42 112q0 107 74 194.5t165 87.5q68 0 116.5 -52.5t48.5 -151.5q0 -86 -46 -182.5t-120 -174.5q-114 -119 -250 -157zM237 310q43 0 77.5 29t52.5 72.5t27.5 86t9.5 76.5q0 50 -25.5 76t-60.5 26
q-50 0 -89.5 -47.5t-58 -107.5t-18.5 -114q0 -52 24.5 -74.5t60.5 -22.5z" />
    <glyph glyph-name="colon" unicode=":" horiz-adv-x="312" 
d="M130 339q0 23 17 39.5t39 16.5t39 -16.5t17 -39.5t-17 -39.5t-39 -16.5t-39 16.5t-17 39.5zM70 48q0 22 17 39t39 17t39 -17t17 -39t-17 -39t-39 -17t-39 17t-17 39z" />
    <glyph glyph-name="semicolon" unicode=";" horiz-adv-x="309" 
d="M127 339q0 23 16.5 39.5t39.5 16.5t39.5 -16.5t16.5 -39.5t-16.5 -39.5t-39.5 -16.5t-39.5 16.5t-16.5 39.5zM88 -90l-12 22q37 21 61 58l-3 3q-6 -2 -8 -2q-21 0 -38.5 15.5t-17.5 40.5t17 40.5t39 15.5t39 -17t17 -51q0 -71 -94 -125z" />
    <glyph glyph-name="less" unicode="&#x3c;" horiz-adv-x="727" 
d="M195 326l462 -198l-17 -46l-570 244l570 244l17 -46z" />
    <glyph glyph-name="equal" unicode="=" horiz-adv-x="757" 
d="M70 363v50h617v-50h-617zM70 243v50h617v-50h-617z" />
    <glyph glyph-name="greater" unicode="&#x3e;" horiz-adv-x="727" 
d="M532 326l-462 198l17 46l570 -244l-570 -244l-17 46z" />
    <glyph glyph-name="question" unicode="?" horiz-adv-x="498" 
d="M115 152l35 166h22q31 -31 65 -31q14 0 29.5 6t37 24t35.5 63t14 111q0 55 -11.5 94t-25.5 54t-27 15q-5 0 -9 -3t-5.5 -5.5t-4.5 -9.5l-3 -6q-10 -20 -31 -20q-18 0 -31.5 9.5t-13.5 28.5q0 26 17.5 40.5t41.5 14.5q52 0 98 -47q80 -82 80 -219q0 -108 -47.5 -162
t-99.5 -54q-62 0 -109 45l-24 -114h-33zM70 51q0 23 17 39.5t39 16.5t39 -16.5t17 -39.5t-17 -39.5t-39 -16.5t-39 16.5t-17 39.5z" />
    <glyph glyph-name="at" unicode="@" horiz-adv-x="1003" 
d="M746 531l-78 -257q-17 -55 -17 -79q0 -30 13 -44.5t32 -14.5q25 0 54 14t57.5 42t47.5 79.5t19 116.5q0 143 -98 238t-248 95q-170 0 -283.5 -111.5t-113.5 -279.5q0 -99 44.5 -188t132.5 -148.5t200 -59.5q71 0 139 22.5t113 64.5l29 -49q-70 -52 -129.5 -71.5
t-141.5 -19.5q-190 0 -319 125t-129 311q0 194 127.5 322.5t328.5 128.5q178 0 292.5 -111t114.5 -269q0 -73 -23.5 -132.5t-60.5 -94.5t-79.5 -54t-83.5 -19q-33 0 -63.5 19t-46.5 55q-66 -50 -132 -50q-62 0 -106.5 46.5t-44.5 131.5q0 105 72 182t178 77q70 0 111 -61
l15 43h77zM568 204l64 225q-7 40 -32.5 65t-58.5 25q-57 0 -102.5 -68t-54.5 -169q-3 -27 0 -54q4 -33 20 -53t30 -24.5t29 -4.5q64 0 105 58z" />
    <glyph glyph-name="A" unicode="A" horiz-adv-x="672" 
d="M-50 0l7 34q23 3 42 10.5t35 22.5t24 24t22.5 29.5t17.5 24.5l428 563h36l-8 -605q-1 -40 14 -54t54 -15l-7 -34h-207l7 34q34 2 44.5 15.5t11.5 47.5l3 116h-272l-88 -116q-22 -30 -22 -40q0 -25 41 -23l-6 -34h-177zM471 252l7 318h-6l-238 -314v-4h237z" />
    <glyph glyph-name="B" unicode="B" horiz-adv-x="648" 
d="M155 700h232q31 0 60.5 -6.5t60.5 -22t50.5 -49t19.5 -80.5q0 -66 -38.5 -115t-105.5 -63v-10q41 -10 69.5 -29.5t41 -44t17.5 -45t5 -40.5q0 -67 -42.5 -121t-127.5 -68q-36 -6 -96 -6h-291l7 34q58 6 73 81l99 473q0 1 2 9t3 17v14q-1 7 -4 14t-14 15t-28 9zM294 661
l-60 -288h85q79 0 117 35.5t52 106.5q4 22 4 34q0 112 -142 112h-56zM164 39h130q48 0 83.5 14.5t53 34t27.5 46.5t12 43t2 33q0 124 -190 124h-56z" />
    <glyph glyph-name="C" unicode="C" horiz-adv-x="668" 
d="M621 708l7 -163h-30q-50 124 -173 124q-111 0 -190.5 -105.5t-79.5 -254.5q0 -135 63.5 -199t156.5 -64q88 0 177 55l20 -25q-115 -84 -230 -84q-140 0 -223 113q-59 83 -59 180q0 176 107 299.5t251 123.5q30 0 75 -9q70 -14 71 -14q25 0 34 23h23z" />
    <glyph glyph-name="D" unicode="D" horiz-adv-x="768" 
d="M157 700h206q56 0 101 -7.5t88.5 -25.5t77.5 -52t57 -83q31 -66 31 -143q0 -125 -60 -217.5t-153 -135.5q-78 -36 -194 -36h-301l7 34q32 4 49.5 22t25.5 55l99 477q3 15 4 26v14q-4 33 -45 38zM297 661l-130 -622h139q110 0 182 55q61 48 98 135t37 186q0 63 -22 117
q-17 41 -44.5 68.5t-63 40t-65 16.5t-66.5 4h-65z" />
    <glyph glyph-name="E" unicode="E" horiz-adv-x="646" 
d="M157 700h285q9 0 113 6q44 2 56 2l-29 -134h-30q0 26 -7 44t-14 26.5t-25 12.5t-23.5 4h-25.5h-160l-60 -283h108q19 0 32 1.5t30.5 7t31 19.5t20.5 36h30l-39 -176h-30q1 24 -5.5 39.5t-20.5 22.5t-27 9t-33 2h-105l-63 -300h139q78 0 132 22t99 91h30l-47 -152h-509
l7 34q33 4 50 22t25 55l100 477q4 24 4 31q0 41 -46 47z" />
    <glyph glyph-name="F" unicode="F" horiz-adv-x="591" 
d="M159 700h253q60 0 97 4.5t72 3.5l-29 -134h-30q0 26 -7 44t-14 26.5t-25 12.5t-23.5 4h-25.5h-128l-59 -283h75q19 0 32 1.5t30.5 7t31 19.5t20.5 36h28l-37 -175h-30q2 44 -15 58t-47 14h-96l-46 -220q-6 -36 -6 -40q0 -39 43 -45l-7 -34h-206l7 34q33 4 50 22t25 55
l102 477q4 24 4 31q0 41 -46 47z" />
    <glyph glyph-name="G" unicode="G" horiz-adv-x="718" 
d="M678 527h-30q-20 66 -77 104t-129 38q-121 0 -204 -99t-83 -242q0 -87 19 -139q27 -72 87.5 -115t132.5 -43q42 0 83 16t59 42q15 22 16 46t-21 42q-13 8 -35 10l6 34h159l-40 -192h-11l-24 21q-105 -58 -201 -58q-59 0 -115 20.5t-104 59.5t-77 104.5t-29 147.5
q0 162 111.5 273t273.5 111q63 0 129 -25q29 -12 43 -12q18 0 35 17h19z" />
    <glyph glyph-name="H" unicode="H" horiz-adv-x="768" 
d="M416 0l7 34q33 4 50 22t25 55l50 240h-316l-50 -240q-4 -22 -4 -32q0 -39 45 -45l-7 -34h-206l7 34q33 4 50 22t25 55l100 477q4 20 4 34q0 40 -47 44l7 34h206l-7 -34q-21 -4 -35.5 -12t-22 -22t-9.5 -21.5t-6 -23.5l-42 -197h316l42 198q4 20 4 34q0 40 -47 44l7 34
h206l-7 -34q-37 -6 -51.5 -25.5t-21.5 -53.5l-100 -476q-4 -22 -4 -32q0 -39 45 -45l-7 -34h-206z" />
    <glyph glyph-name="I" unicode="I" horiz-adv-x="362" 
d="M10 0l7 34q33 4 50 22t25 55l100 477q4 20 4 34q0 40 -47 44l7 34h206l-7 -34q-37 -6 -51.5 -25.5t-21.5 -53.5l-100 -476q-4 -22 -4 -32q0 -39 45 -45l-7 -34h-206z" />
    <glyph glyph-name="J" unicode="J" horiz-adv-x="383" 
d="M383 700l-8 -34q-63 -7 -78 -77l-99 -478q-28 -140 -50 -186q-42 -90 -105 -90q-32 0 -52.5 17.5t-20.5 41.5q0 16 8 28.5t25 12.5t26.5 -8.5t9.5 -20.5q0 -2 -0.5 -5t-0.5 -5q0 -22 20 -22q35 0 35 101q0 68 21 169l93 444q2 10 2 36q0 37 -48 42l7 34h215z" />
    <glyph glyph-name="K" unicode="K" horiz-adv-x="702" 
d="M10 0l7 34q33 4 50 22t25 55l100 477q4 20 4 34q0 40 -47 44l7 34h206l-7 -34q-21 -4 -35.5 -12t-22 -22t-9.5 -21.5t-6 -23.5l-42 -199h7l228 207q31 28 31 41q0 14 -13.5 21.5t-29.5 8.5l7 34h222l-7 -34q-57 -5 -93.5 -25t-83.5 -64l-195 -180l199 -239
q97 -116 179 -124l-7 -34h-259l7 34q20 -1 31.5 4.5t13.5 10.5t2 10t-3 11t-6.5 10t-11 13t-10.5 13l-196 236l-27 -26l-43 -205q-4 -22 -4 -32q0 -39 45 -45l-7 -34h-206z" />
    <glyph glyph-name="L" unicode="L" horiz-adv-x="632" 
d="M10 0l7 34q33 4 50 22t25 55l100 477q4 20 4 34q0 40 -47 44l7 34h206l-7 -34q-37 -6 -51.5 -25.5t-21.5 -53.5l-114 -548h169q83 0 138 28t86 92h31l-42 -159h-540z" />
    <glyph glyph-name="M" unicode="M" horiz-adv-x="868" 
d="M156 700h148l123 -420h9l275 420h157l-7 -34q-37 -6 -51.5 -25.5t-21.5 -53.5l-100 -476q-4 -22 -4 -32q0 -39 45 -45l-7 -34h-206l7 34q32 4 49.5 22t25.5 55l107 498h-6l-303 -458h-21l-132 458h-7l-103 -490q-8 -43 -8 -45q0 -40 50 -40l-8 -34h-157l8 34q17 0 30 7
t20 13t13.5 25.5t7.5 25t6 30.5l94 445q7 33 7 44q0 37 -47 42z" />
    <glyph glyph-name="N" unicode="N" horiz-adv-x="705" 
d="M156 700h143l194 -516h9l1 10l79 387q1 6 3 15.5t3.5 16.5t1.5 13q0 40 -50 40l8 34h157l-8 -34q-17 0 -30 -7t-20 -13t-13.5 -25.5t-7.5 -25t-6 -30.5l-118 -565h-30l-229 609h-7l-103 -490q-8 -43 -8 -45q0 -40 50 -40l-8 -34h-157l8 34q17 0 30 7t20 13t13.5 25.5
t7.5 25t6 30.5l94 446q7 33 7 44q0 35 -47 41z" />
    <glyph glyph-name="O" unicode="O" horiz-adv-x="776" 
d="M432 708q137 0 215.5 -91.5t78.5 -211.5q0 -71 -23.5 -142t-68.5 -132.5t-119 -100t-165 -38.5q-126 0 -208 85t-82 215q0 72 25 144.5t70.5 133.5t118 99.5t158.5 38.5zM429 671q-113 0 -193.5 -112.5t-80.5 -288.5q0 -61 18 -108.5t47.5 -75.5t64 -42.5t71.5 -14.5
q79 0 143.5 59.5t98 147.5t33.5 182q0 111 -57 182t-145 71z" />
    <glyph glyph-name="P" unicode="P" horiz-adv-x="628" 
d="M206 34l-6 -34h-200l6 34q19 1 32 9.5t21 24t11 26t7 28.5l73 353q22 105 74 159q72 74 188 74q86 0 146 -46t60 -134q0 -122 -80 -217t-206 -95q-80 0 -136 50l-29 -141q-6 -30 -6 -53q0 -17 13.5 -27t31.5 -11zM247 510l-38 -183q40 -72 128 -72q53 0 91.5 31t58 79.5
t28 95t8.5 89.5q0 55 -27.5 87t-76.5 32q-77 0 -123 -49q-32 -34 -49 -110z" />
    <glyph glyph-name="Q" unicode="Q" horiz-adv-x="774" 
d="M702 -46h31q-23 -135 -124 -135q-37 0 -65.5 14t-49 44t-30.5 52.5t-26 63.5q0 2 -1 4l-2 4q-36 -9 -85 -9q-155 0 -238 125q-52 78 -52 175q0 79 29.5 159.5t81.5 139.5q105 117 261 117q70 0 132 -30q70 -35 116 -106t46 -167q0 -50 -11 -100.5t-35.5 -104t-70 -100
t-107.5 -76.5q38 -59 69 -88t65 -29q48 0 66 47zM216 94q42 55 108 55q42 0 83 -22t67 -61q83 63 120 165t37 187q0 111 -57 182t-145 71q-56 0 -109.5 -30.5t-93.5 -91.5q-71 -109 -71 -279q0 -102 61 -176zM419 39q-12 33 -39 54.5t-60 21.5q-49 0 -71 -48q36 -38 107 -38
q33 0 63 10z" />
    <glyph glyph-name="R" unicode="R" horiz-adv-x="708" 
d="M156 700h239q65 0 112.5 -15.5t71 -36.5t37 -50.5t16 -48t2.5 -38.5q0 -52 -34 -92q-28 -34 -78 -53.5t-98 -23.5v-7q26 -25 38 -46l97 -182q19 -36 41 -52.5t58 -20.5l-7 -34h-136l-123 233q-33 63 -48 78q-25 26 -69 26h-46l-47 -226q-4 -22 -4 -32q0 -39 45 -45
l-7 -34h-206l7 34q33 4 50 22t25 55l100 477q4 20 4 34q0 40 -47 44zM238 376h94q32 0 49 0.5t45.5 8t49.5 21.5q27 18 45 50t18 72q0 32 -8 56.5t-25 38t-32 22.5t-39.5 12t-35.5 3.5t-32 0.5h-69z" />
    <glyph glyph-name="S" unicode="S" horiz-adv-x="531" 
d="M481 534h-31q-51 135 -162 135q-48 0 -71 -27.5t-23 -64.5q0 -35 27 -67.5t111 -106.5q70 -62 98 -100.5t28 -90.5q0 -103 -63.5 -161.5t-146.5 -58.5q-58 0 -123 25q-33 14 -39 14q-10 0 -20.5 -8.5t-15.5 -22.5h-20l-20 191h30q22 -73 78 -116.5t115 -43.5
q71 0 108 44.5t37 98.5q0 23 -8 43.5t-29 44.5t-30 33t-39 36q-6 6 -27 24.5t-27 24t-22.5 21.5t-22 23.5t-17 22t-15.5 24t-10 24t-8 28.5t-2 29q0 61 44 108.5t124 47.5q33 0 72 -12q11 -4 24 -9.5t21 -8.5t13 -3q9 0 16.5 7.5t10.5 17.5h22z" />
    <glyph glyph-name="T" unicode="T" horiz-adv-x="622" 
d="M110 0l7 34q33 4 50 22t25 55l115 550h-107q-94 0 -130 -125h-30l50 172q80 -8 240 -8h158q71 0 139 8l-11 -172h-30q1 20 -4 39.5t-17 40t-37 33t-60 12.5h-69l-117 -550q-4 -22 -4 -32q0 -39 45 -45l-7 -34h-206z" />
    <glyph glyph-name="U" unicode="U" horiz-adv-x="687" 
d="M128 700h206l-7 -34q-37 -6 -51.5 -25.5t-21.5 -53.5l-64 -310q-13 -65 -13 -90v-10v-10.5t0.5 -10t1 -11.5t2 -11t3.5 -11.5t5 -11t6.5 -12t9 -11.5t11.5 -11q41 -36 104 -36q34 0 63 9.5t48 22.5t36 36t25.5 40t17.5 46t12 41.5t8 38.5l64 306q7 31 7 44q0 41 -49 41
l8 34h157l-8 -34q-17 0 -30 -7t-20 -13t-13.5 -25.5t-7.5 -25t-6 -30.5l-66 -320q-7 -35 -14.5 -60t-26.5 -64.5t-44 -65t-68.5 -44.5t-98.5 -19q-53 0 -101.5 18.5t-79.5 53.5q-43 49 -43 89q0 76 15 148l59 287q4 20 4 34q0 40 -47 44z" />
    <glyph glyph-name="V" unicode="V" 
d="M261 700l-7 -34q-23 -2 -34.5 -14.5t-11 -28t1.5 -31.5l61 -461h5l271 444q26 42 26 54q0 39 -57 37l7 34h182l-7 -34q-20 -2 -37 -11t-30.5 -24.5t-21 -26.5t-18.5 -29l-353 -583h-39l-79 607q-10 70 -70 69l7 32h204z" />
    <glyph glyph-name="W" unicode="W" horiz-adv-x="1003" 
d="M1053 700l-7 -34q-24 -2 -45.5 -21t-53.5 -67l-378 -586h-27l-63 319h-3l-202 -319h-31l-121 603q-6 33 -21.5 51.5t-50.5 19.5l7 34h222l-7 -34q-22 -1 -40 -13t-18 -38q0 -13 5 -36l95 -450h3l151 238l-50 240q-12 55 -57 59l7 34h386l-7 -34q-26 -4 -49.5 -23.5
t-52.5 -64.5l-96 -152l66 -299h2l277 438q28 45 28 74q0 15 -14 22t-29 5l7 34h167zM543 486l75 117q18 27 18 39q0 10 -8.5 17t-21.5 7h-47q-48 0 -48 -42q0 -10 4 -30l23 -108h5z" />
    <glyph glyph-name="X" unicode="X" horiz-adv-x="724" 
d="M86 700h240l-7 -34q-44 3 -44 -26q0 -9 11 -31l97 -186h6l145 166q29 32 29 47q0 28 -53 30l7 34h197l-6 -34q-48 -10 -68.5 -25t-56.5 -56l-178 -204l132 -252q42 -82 127 -95l-7 -34h-231l7 34q14 -1 26.5 6t12.5 20q0 10 -14 38l-110 207h-6l-166 -194
q-28 -32 -28 -45q0 -28 47 -32l-8 -34h-197l7 34q34 6 62.5 23.5t41.5 31t46 52.5l178 207l-125 240q-20 39 -46.5 56t-74.5 22z" />
    <glyph glyph-name="Y" unicode="Y" 
d="M264 271l-136 338q-23 58 -78 57l7 34h211l-7 -34q-46 0 -46 -35q0 -9 9 -29l116 -276h4l197 261q28 37 28 52q0 13 -14 21.5t-37 5.5l7 34h180l-7 -34q-23 0 -45 -15t-31 -26t-30 -38l-237 -315l-35 -161q-4 -22 -4 -32q0 -39 45 -45l-7 -34h-206l7 34q33 4 50 22t25 55
z" />
    <glyph glyph-name="Z" unicode="Z" horiz-adv-x="711" 
d="M168 700h503l-5 -37l-526 -613v-11h229q34 0 60 3t62.5 13t66.5 35.5t50 64.5h31l-48 -155h-581l5 37l531 616v8h-183q-146 0 -204 -102h-31z" />
    <glyph glyph-name="bracketleft" unicode="[" horiz-adv-x="489" 
d="M439 700l-8 -39h-124l-169 -806h140l-9 -39h-229l185 884h214z" />
    <glyph glyph-name="backslash" unicode="\" horiz-adv-x="548" 
d="M380 -184l-163 884h59l163 -884h-59z" />
    <glyph glyph-name="bracketright" unicode="]" horiz-adv-x="474" 
d="M220 700h214l-185 -884h-199l8 39h109l169 806h-125z" />
    <glyph glyph-name="asciicircum" unicode="^" horiz-adv-x="528" 
d="M264 621l-116 -116h-78l194 195l194 -195h-78z" />
    <glyph glyph-name="underscore" unicode="_" horiz-adv-x="543" 
d="M0 -233v50h543v-50h-543z" />
    <glyph glyph-name="grave" unicode="`" horiz-adv-x="341" 
d="M291 519l-15 -16l-114 76q-24 16 -29 21q-13 13 -13 28q0 17 12 29t29 12q24 0 38 -20z" />
    <glyph glyph-name="a" unicode="a" horiz-adv-x="435" 
d="M375 385l-64 -307q-3 -18 -3 -20q0 -21 22 -21q17 0 50 21l15 -16q-50 -50 -105 -50q-28 0 -41.5 10.5t-12.5 37.5h-3q-47 -48 -106 -48q-40 0 -68.5 27.5t-28.5 82.5q0 104 69 197q31 43 72 68.5t81 25.5q41 0 69 -28l27 20h27zM246 107l40 187q5 20 5 36q0 32 -41 32
q-67 0 -112 -101q-33 -71 -33 -148q0 -42 17.5 -60t43.5 -18q30 0 52 21t28 51z" />
    <glyph glyph-name="b" unicode="b" horiz-adv-x="450" 
d="M84 655q84 4 132 35h9l-72 -347h9q66 50 124 50q55 0 89.5 -37t34.5 -99q0 -78 -70 -158q-94 -107 -212 -107q-98 0 -98 78q0 17 5 40l97 472q5 25 5 29q0 22 -25 22h-33zM156 23q67 0 123 84.5t56 163.5q0 40 -20.5 62.5t-48.5 22.5q-58 0 -123 -60l-37 -175
q-5 -23 -5 -42q0 -56 55 -56z" />
    <glyph glyph-name="c" unicode="c" horiz-adv-x="378" 
d="M319 98l14 -15q-80 -91 -169 -91q-78 0 -114 63q-20 33 -20 96q0 60 27.5 113t72.5 88q52 41 108 41q42 0 65.5 -19t23.5 -42q0 -15 -9 -24t-22 -9q-14 0 -25 8.5t-13 25.5q0 1 -0.5 5.5t-1 6t-1.5 5t-3 5t-4.5 3.5t-7 3t-9.5 1q-16 0 -32 -8q-41 -20 -67.5 -70
t-26.5 -113q0 -44 11 -73t29 -41t31 -15.5t27 -3.5q46 0 116 60z" />
    <glyph glyph-name="d" unicode="d" horiz-adv-x="464" 
d="M326 655q84 4 132 35h9l-127 -612q-3 -18 -3 -20q0 -21 22 -21q17 0 50 21l15 -16q-51 -50 -105 -50q-33 0 -44 13.5t-11 35.5q0 9 1 13h-3q-66 -62 -126 -62q-40 0 -73 31.5t-33 87.5q0 86 59 170q41 57 90.5 84.5t91.5 27.5q29 0 57 -20h3l43 209q5 25 5 29
q0 22 -25 22h-33zM275 106l42 199q2 14 3 26.5t-10 21.5t-35 9q-31 0 -64.5 -23.5t-59.5 -63.5q-46 -71 -46 -141q0 -48 20.5 -70t49.5 -22q55 0 100 64z" />
    <glyph glyph-name="e" unicode="e" horiz-adv-x="370" 
d="M311 109l19 -15q-71 -102 -162 -102q-37 0 -65 14.5t-43 38.5t-22.5 51t-7.5 55t12 64q24 77 81.5 127.5t118.5 50.5q37 0 60.5 -20.5t23.5 -49.5q0 -41 -32 -76t-97 -35q-29 0 -50 5l6 26q18 -2 27 -2q38 0 65 22t27 56q0 24 -15.5 33.5t-30.5 9.5q-36 0 -69 -33.5
t-48 -87.5q-9 -35 -9 -70q0 -64 26 -95.5t65 -31.5q66 0 120 65z" />
    <glyph glyph-name="f" unicode="f" horiz-adv-x="335" 
d="M318 385l-7 -31h-77l-40 -188q-35 -163 -67.5 -223.5t-90.5 -60.5q-27 0 -39 14.5t-12 32.5q0 19 10 30.5t25 11.5q20 0 28 -15t4 -27q0 -1 -0.5 -2t-0.5 -2q0 -8 10 -8q11 0 20 12q3 4 5 9t4 12.5t3.5 14.5t3 19.5t2.5 21.5t3.5 26.5t3.5 28.5q3 24 35 181l22 112h-88
l6 31q55 3 77 17t36 50q9 23 19 62t23 80q31 96 97 96q23 0 37.5 -12t14.5 -28q0 -20 -9 -34.5t-26 -14.5q-32 0 -32 42q0 12 -9 12q-24 0 -34 -70q-17 -121 -33 -200h76z" />
    <glyph glyph-name="g" unicode="g" horiz-adv-x="411" 
d="M211 386q60 0 98 -38q35 47 68 47q16 0 26 -10t10 -23t-9 -22.5t-23 -9.5q-10 0 -24 12q-14 11 -30 -16q23 -30 23 -80q0 -27 -13 -56q-19 -44 -58.5 -69t-89.5 -25q-36 0 -68 15l-33 -65l4 -5q41 11 90 11q80 0 114.5 -33t34.5 -76q0 -55 -51.5 -97.5t-127.5 -42.5
q-58 0 -99 18t-41 48q0 21 11 34t30 13q33 0 39 -36q2 -12 3 -16.5t7 -14.5t19 -14t34 -4q59 0 97 40q24 25 24 52t-23.5 43.5t-68.5 16.5q-29 0 -52.5 -3.5t-59 -13t-49.5 -12.5l-13 13l88 158q-46 42 -46 106q0 58 42.5 106.5t116.5 48.5zM210 355q-45 0 -66.5 -47.5
t-21.5 -100.5q0 -37 18 -58.5t45 -21.5q65 0 87 85q8 36 8 54q0 89 -70 89z" />
    <glyph glyph-name="h" unicode="h" horiz-adv-x="481" 
d="M103 655q84 4 132 35h9l-75 -359h5q71 62 152 62q36 0 58.5 -20t22.5 -56q0 -21 -8 -56l-42 -183q-3 -11 -3 -20q0 -21 22 -21q17 0 50 21l15 -16q-51 -50 -105 -50t-54 49q0 15 5 37l42 189q6 26 6 40q0 8 -1 14t-12.5 15.5t-33.5 9.5q-39 0 -77.5 -24t-54.5 -54
l-56 -268h-70l121 582q5 25 5 29q0 22 -25 22h-33z" />
    <glyph glyph-name="i" unicode="i" horiz-adv-x="233" 
d="M193 42q-51 -50 -105 -50q-19 0 -31.5 5t-16.5 14.5t-5 15t-1 14.5q0 15 5 37l44 207q5 25 5 29q0 22 -25 22h-33l5 22q84 4 132 35h9l-67 -315q-3 -18 -3 -20q0 -21 22 -21q17 0 50 21zM79 565q0 20 15 35t35 15t35 -15t15 -35t-15 -35t-35 -15t-35 15t-15 35z" />
    <glyph glyph-name="j" unicode="j" horiz-adv-x="270" 
d="M79 358q84 4 132 35h9l-79 -393l-11 -60q-17 -89 -38 -113t-56 -24q-25 0 -38 14.5t-13 32.5q0 19 10 30.5t25 11.5q20 0 28 -15t4 -27v-2l-1 -2q0 -8 10 -8q9 0 17 10.5t12 34.5t-6 64q-14 61 -7 96l50 242q5 25 5 29q0 22 -25 22h-33zM117 566q0 20 15 35t35 15t35 -15
t15 -35t-15 -35t-35 -15t-35 15t-15 35z" />
    <glyph glyph-name="k" unicode="k" horiz-adv-x="451" 
d="M102 655q84 4 132 35h9l-70 -336q66 39 136 39q56 0 79 -23t23 -52q0 -41 -44 -78.5t-119 -51.5v-3q33 -10 49 -31.5t26 -54.5q2 -6 6 -21.5t5.5 -20.5t6.5 -15.5t11 -14t16 -7t23 -3.5v-18q-35 -7 -50 -7q-64 0 -86 64q-7 22 -12 43t-8 31.5t-9 19.5q-13 20 -34 25.5
t-55 4.5l-37 -180h-70l120 582q5 25 5 29q0 22 -25 22h-33zM165 314l-22 -103q98 -3 145.5 25.5t47.5 69.5q0 23 -16.5 37.5t-43.5 14.5q-26 0 -58.5 -12.5t-52.5 -31.5z" />
    <glyph glyph-name="l" unicode="l" horiz-adv-x="239" 
d="M199 42q-51 -50 -105 -50q-19 0 -31.5 5t-16.5 14.5t-5 15t-1 14.5q0 15 5 37l104 504q5 25 5 29q0 22 -25 22h-33l5 22q84 4 132 35h9l-127 -612q-3 -18 -3 -20q0 -21 22 -21q17 0 50 21z" />
    <glyph glyph-name="m" unicode="m" horiz-adv-x="727" 
d="M42 358q84 4 132 35h9l-13 -62h3q86 62 155 62q33 0 54.5 -17t26.5 -45h6q82 62 153 62q45 0 65 -23t20 -53q0 -19 -8 -56l-42 -183q-3 -11 -3 -20q0 -21 22 -21q17 0 50 21l15 -16q-51 -50 -105 -50t-54 45q0 18 5 41l42 189q6 26 6 40q0 7 -1 13t-12.5 16t-33.5 10
q-33 0 -79.5 -26t-53.5 -59l-57 -261h-70l57 267q6 30 6 40v6.5t-2.5 9.5t-7 11t-14 8t-23.5 4q-37 0 -80 -27q-49 -31 -53 -49l-57 -270h-70l60 285q5 25 5 29q0 22 -25 22h-33z" />
    <glyph glyph-name="n" unicode="n" horiz-adv-x="483" 
d="M42 358q84 4 132 35h9l-13 -62h3q86 62 155 62q40 0 60.5 -21t20.5 -55q0 -21 -8 -56l-42 -183q-3 -11 -3 -20q0 -21 22 -21q17 0 50 21l15 -16q-51 -50 -105 -50q-19 0 -31 5t-16.5 14t-5.5 15t-1 15q0 15 5 37l42 189q6 26 6 40v6.5t-2.5 9.5t-7 11t-14 8t-23.5 4
q-38 0 -80 -26q-50 -31 -53 -50l-57 -270h-70l60 285q5 25 5 29q0 22 -25 22h-33z" />
    <glyph glyph-name="o" unicode="o" horiz-adv-x="435" 
d="M235 393q67 0 111 -44q49 -49 49 -130q0 -85 -51 -150q-60 -77 -157 -77q-68 0 -112 47q-45 48 -45 131q0 76 53 143q63 80 152 80zM235 362q-69 0 -105 -88q-25 -61 -25 -140q0 -40 11 -66q20 -45 71 -45q69 0 102 71q31 66 31 160q0 52 -21 79q-23 29 -64 29z" />
    <glyph glyph-name="p" unicode="p" horiz-adv-x="426" 
d="M-20 -184l82 419q15 79 66 118.5t111 39.5q63 0 105 -49.5t42 -130.5q0 -84 -52.5 -152.5t-133.5 -68.5q-69 0 -103 56h-2l-45 -232h-70zM135 252l-21 -111q-12 -62 13.5 -87.5t60.5 -25.5q76 0 106 116q17 66 17 115q0 57 -24.5 80t-57.5 23q-21 0 -37.5 -9.5
t-25.5 -20.5t-16.5 -29.5t-9.5 -27t-5 -23.5z" />
    <glyph glyph-name="q" unicode="q" horiz-adv-x="480" 
d="M232 -184l49 226h-8q-68 -50 -124 -50q-49 0 -84 33t-35 89q0 92 84.5 185.5t170.5 93.5q25 0 51 -13q20 -10 40 -10q24 0 39 23h15l-128 -577h-70zM290 94l41 169q5 35 4.5 54.5t-12.5 29.5t-20 12.5t-18 2.5q-46 0 -96.5 -56t-74.5 -139q-9 -32 -9 -54q0 -38 20 -58.5
t54 -20.5q53 0 111 60z" />
    <glyph glyph-name="r" unicode="r" horiz-adv-x="303" 
d="M32 335v22q64 10 98 36h12q14 -39 9 -83h2q44 83 103 83q27 0 42 -18t15 -36q0 -15 -11 -29t-30 -14q-30 0 -41 25q-7 14 -16 14q-7 0 -14 -7q-35 -30 -57 -128l-44 -200h-70l51 244q9 32 9 54q0 37 -47 37h-11z" />
    <glyph glyph-name="s" unicode="s" horiz-adv-x="342" 
d="M196 393q46 0 76 -20.5t30 -44.5q0 -14 -9 -24t-23 -10q-5 0 -10 1.5t-8 3t-6.5 4.5t-5 5.5t-3.5 6.5t-2.5 6t-2 6t-1.5 5q-9 30 -45 30q-22 0 -36 -11t-17 -25q-5 -24 19 -51q6 -7 13.5 -13.5t17 -14t14.5 -11.5q87 -71 83 -134q-2 -45 -40 -77.5t-100 -32.5
q-52 0 -83.5 27t-31.5 60q0 17 10.5 29t29.5 12t28.5 -16.5t1.5 -35.5q-5 -13 -5 -15q0 -11 12.5 -20.5t43.5 -9.5q33 0 51 18.5t20 40.5q1 12 -2.5 23t-14.5 23.5t-17 19t-23.5 21t-21.5 18.5q-33 29 -49 52t-16 49q0 37 29 71t94 34z" />
    <glyph glyph-name="t" unicode="t" horiz-adv-x="243" 
d="M188 32q-44 -40 -90 -40q-26 0 -39.5 9t-16 18t-2.5 22q0 15 5 37l60 276h-58l6 31h58l32 158h70l-32 -158h52l-6 -31h-52l-60 -276q-3 -18 -3 -20q0 -21 22 -21q17 0 50 21z" />
    <glyph glyph-name="u" unicode="u" horiz-adv-x="485" 
d="M355 385h70l-64 -307q-3 -18 -3 -20q0 -21 22 -21q17 0 50 21l15 -16q-51 -50 -105 -50t-54 43q0 18 5 43l12 61h-6q-38 -53 -93 -100t-106 -47q-31 0 -46.5 16t-15.5 43q0 9 4 29l42 205q5 23 5 29q0 22 -23 22h-34l5 22q84 4 132 35h8l-63 -300q-4 -18 -4 -26
q0 -22 21 -22q30 0 70 35.5t71 76.5q52 69 66 139z" />
    <glyph glyph-name="v" unicode="v" horiz-adv-x="443" 
d="M30 336l5 22q84 4 132 35h9l-56 -274q-6 -21 -6 -44q0 -49 54 -49q33 0 72.5 25t69.5 66q55 75 55 139q0 16 -6 28.5t-11 17t-15 11.5q-1 1 -6 4.5t-6.5 4.5t-5.5 4.5t-5 5.5t-3.5 6t-3 7.5t-0.5 8.5q0 39 34 39q29 0 47.5 -28t18.5 -77q0 -94 -72 -190
q-79 -106 -187 -106q-102 0 -102 77q0 9 7 49l34 167q5 27 5 29q0 22 -25 22h-33z" />
    <glyph glyph-name="w" unicode="w" horiz-adv-x="689" 
d="M35 358q84 4 132 35h8l-56 -268q-8 -40 -8 -60q0 -13 6.5 -21t28.5 -8q31 0 74 28q47 30 65.5 62t28.5 79l16 80q4 24 4 29q0 22 -25 22h-33l5 22q84 4 132 35h9l-56 -274q-7 -42 -7 -44q0 -49 55 -49q33 0 72.5 25t69.5 66q55 75 55 139q0 26 -14 42q-4 5 -18 15
q-1 1 -6 4.5t-6.5 4.5t-5.5 4.5t-5 5.5t-3.5 6t-3 7.5t-0.5 8.5q0 39 34 39q29 0 47.5 -28t18.5 -77q0 -94 -72 -190q-79 -106 -187 -106q-100 0 -103 70v10h-5q-36 -35 -83.5 -57.5t-89.5 -22.5t-56 19.5t-14 40.5q0 24 8 60l35 173q5 23 5 29q0 22 -23 22h-34z" />
    <glyph glyph-name="x" unicode="x" horiz-adv-x="419" 
d="M61 334q46 59 91 59q16 0 28 -10.5t16 -20t11 -27.5l28 -81q8 14 21 36t18.5 32t15 25t15.5 21t14 13t16 9.5t17 2.5q19 0 30.5 -9.5t11.5 -23.5t-8.5 -25.5t-23.5 -11.5q-8 0 -20 7q-10 5 -12 5q-3 0 -6.5 -1t-7 -4.5t-6.5 -7t-7.5 -9.5t-8.5 -12t-10 -16t-11 -18
t-12.5 -21.5t-14.5 -24.5l46 -134q1 -3 3.5 -10t3.5 -10l3 -9t4 -8.5t5 -7t5.5 -6t6.5 -3t9 -1.5q14 0 32 10l9 -14q-48 -36 -75 -36q-10 0 -18.5 2.5t-15 9l-11 11t-9.5 16.5t-7.5 17t-7.5 20t-6 19l-20 58h-3q-9 -15 -47 -73q-36 -54 -61 -69q-18 -11 -36 -11
q-23 0 -32 13.5t-9 28.5t13 27t39 6q11 -3 21 -3q31 0 64 49q17 25 39 66l-43 126q-4 14 -6.5 20t-9 13t-14.5 7q-17 0 -47 -25z" />
    <glyph glyph-name="y" unicode="y" horiz-adv-x="478" 
d="M40 358q84 4 132 35h9l-55 -266q-5 -22 -5 -48q0 -21 14 -31.5t34 -10.5q45 0 107 48q6 5 11.5 11.5t9.5 11t7.5 12.5t5.5 11.5t4.5 13.5t3.5 12.5t3.5 14t2.5 12.5l22 102q5 22 5 28q0 22 -24 22h-33l5 22q84 4 132 35h7l-65 -309q-20 -98 -52 -159t-96 -92
q-36 -17 -67 -17q-46 0 -87 21.5t-41 57.5q0 20 11 33.5t27 13.5q35 0 39 -34v-25q0 -18 13 -27t32 -9q89 0 128 139q3 11 8 32t11 42h-6q-86 -68 -148 -68q-42 0 -69 23.5t-27 68.5q0 23 4 42l34 159q5 27 5 29q0 22 -24 22h-33z" />
    <glyph glyph-name="z" unicode="z" horiz-adv-x="410" 
d="M95 294l-19 9q31 90 102 90q22 0 50 -5q49 -7 64 -7q51 0 78 12l10 -13q-24 -50 -64 -98.5t-119 -123.5q-28 -27 -43.5 -41t-38.5 -36v-5q19 8 42 8q38 0 70 -23q54 -38 74 -38q6 0 11 5t-7 9q-21 9 -21 28q0 13 9.5 23t24.5 10q16 0 27.5 -12t11.5 -32q0 -12 -3.5 -24
t-20 -25t-44.5 -13q-23 0 -47 3q-13 2 -47 8.5t-52 6.5q-30 0 -53 -8q-46 -15 -56 -5q-4 4 -4 12q0 37 113 149q5 5 58 53t111 105v4q-33 -6 -55 -6q-14 0 -42 4q-48 8 -69 8q-25 0 -51 -32z" />
    <glyph glyph-name="braceleft" unicode="{" horiz-adv-x="446" 
d="M135 308q33 4 57 24.5t38 54t20.5 59t11.5 59.5q5 31 9.5 52.5t17.5 53.5t31 53t50.5 39t75.5 23l-2 -31q-86 -20 -100 -136q-1 -5 -3 -24.5t-3 -27.5t-5 -27.5t-7.5 -30t-10.5 -28.5t-15 -30t-20 -28t-26.5 -27.5t-34 -24.5t-42.5 -23q81 -42 81 -114q0 -62 -27 -157
q-12 -41 -12 -72q0 -28 16.5 -43t37.5 -20l-10 -31q-31 4 -53 16t-33 25t-17 33t-7 32t-1 29q0 16 27 120q12 46 12 69q0 90 -65 94z" />
    <glyph glyph-name="bar" unicode="|" horiz-adv-x="190" 
d="M70 -224v1053h50v-1053h-50z" />
    <glyph glyph-name="braceright" unicode="}" horiz-adv-x="334" 
d="M329 308l-9 -39q-26 -3 -46 -17t-32.5 -31.5t-22.5 -45t-15 -49.5t-10 -54q-6 -35 -10.5 -55t-18 -53t-31 -52t-49.5 -37t-75 -24l1 31q52 13 72.5 48.5t27.5 86.5q14 99 30 138q36 90 136 133q-81 48 -81 132q0 40 28 139q12 43 12 72q0 49 -54 64l11 31q40 -4 65 -22
q45 -33 45 -114q0 -17 -26 -119q-13 -56 -13 -78q0 -79 65 -85z" />
    <glyph glyph-name="asciitilde" unicode="~" horiz-adv-x="725" 
d="M70 253q9 21 22.5 41.5t36.5 46t58.5 41t76.5 15.5q48 0 123 -28q12 -4 40.5 -16.5t46 -17.5t34.5 -5q30 0 59 21t42 58h46q-18 -65 -67.5 -110.5t-124.5 -45.5q-44 0 -116 28q-9 4 -31.5 13t-34.5 13.5t-30.5 9t-33.5 4.5q-66 0 -101 -68h-46z" />
    <glyph glyph-name="uni00A0" unicode="&#xa0;" horiz-adv-x="233" 
 />
    <glyph glyph-name="currency" unicode="&#xa4;" horiz-adv-x="740" 
d="M633 580l37 -37l-94 -95q60 -76 60 -168t-60 -168l94 -95l-37 -37l-95 95q-76 -60 -168 -60t-168 60l-94 -95l-38 37l95 95q-60 76 -60 168t60 168l-95 95l38 37l94 -95q76 60 168 60t168 -60zM164 280q0 -77 55.5 -141.5t150.5 -64.5q96 0 151.5 65t55.5 141t-55.5 141
t-151.5 65q-95 0 -150.5 -64.5t-55.5 -141.5z" />
    <glyph glyph-name="brokenbar" unicode="&#xa6;" horiz-adv-x="190" 
d="M70 460v369h50v-369h-50zM70 145h50v-369h-50v369z" />
    <glyph glyph-name="section" unicode="&#xa7;" horiz-adv-x="640" 
d="M262 456q-24 37 -24 90q0 54 31.5 92.5t72 54t83.5 15.5q65 0 105 -40.5t40 -90.5q0 -29 -15.5 -48t-38.5 -19q-21 0 -33 12.5t-12 29.5q0 28 21 39q1 1 4 2t4.5 2t4 2.5t4 3t3 4t2 5t0.5 6.5q0 20 -25.5 38.5t-62.5 18.5q-47 0 -82.5 -23t-35.5 -65q0 -41 48 -89l91 -88
q42 -41 64 -72.5t22 -66.5q0 -48 -36 -100.5t-112 -91.5q27 -36 27 -80q0 -62 -54.5 -121.5t-140.5 -59.5q-60 0 -103.5 36t-43.5 93q0 32 16 51.5t40 19.5q22 0 36 -13.5t14 -32.5q0 -27 -24 -39q-1 -1 -6.5 -3t-8.5 -3.5t-6 -6.5t-3 -12q0 -20 25.5 -38t62.5 -18
q52 0 88 31.5t36 71.5q0 19 -11.5 40t-19 28.5t-32.5 33.5l-107 110q-46 48 -50 104q-7 109 142 187zM286 430q-107 -56 -91 -125q2 -7 5.5 -15t6.5 -13t9 -12.5t9.5 -11t11 -11.5t9.5 -10l121 -127q77 43 89 95q4 18 0 36q-7 28 -59 81z" />
    <glyph glyph-name="copyright" unicode="&#xa9;" horiz-adv-x="856" 
d="M70 350q0 148 105 253t253 105t253 -105t105 -253t-105 -253t-253 -105t-253 105t-105 253zM112 350q0 -131 92.5 -223.5t223.5 -92.5t223.5 92.5t92.5 223.5t-92.5 223.5t-223.5 92.5t-223.5 -92.5t-92.5 -223.5zM567 245l15 -17q-40 -42 -77.5 -56t-86.5 -14
t-85.5 20.5t-55 52t-27.5 62t-9 57.5q0 33 11 66t32 63.5t58.5 50t84.5 19.5q42 0 72 -9.5t42 -9.5q6 0 12 6h12v-84h-24q-35 69 -111 69q-50 0 -85.5 -46.5t-35.5 -123.5q0 -162 134 -162q34 0 68 15.5t56 40.5z" />
    <glyph glyph-name="guillemotleft" unicode="&#xab;" horiz-adv-x="532" 
d="M239 39l-209 155l234 173l20 -19l-173 -153v-4l146 -135zM440 39l-209 155l233 173l18 -17l-178 -155v-4l153 -135z" />
    <glyph glyph-name="logicalnot" unicode="&#xac;" horiz-adv-x="691" 
d="M70 180v50h551v-154h-49v104h-502z" />
    <glyph glyph-name="uni00AD" unicode="&#xad;" horiz-adv-x="369" 
d="M70 139l21 91h134q14 0 21 1t16.5 7t15.5 19h21l-21 -93h-135q-37 0 -48 -25h-25z" />
    <glyph glyph-name="registered" unicode="&#xae;" horiz-adv-x="856" 
d="M70 350q0 148 105 253t253 105t253 -105t105 -253t-105 -253t-253 -105t-253 105t-105 253zM112 350q0 -131 92.5 -223.5t223.5 -92.5t223.5 92.5t92.5 223.5t-92.5 223.5t-223.5 92.5t-223.5 -92.5t-92.5 -223.5zM293 535h174q14 0 29 -2.5t36 -10.5t34 -28t13 -50
q0 -39 -18 -60t-56 -33l74 -115q2 -2 4.5 -6.5t3.5 -6.5t3.5 -5t3.5 -4t3 -3.5t4 -3.5t4.5 -2.5t5.5 -2t6.5 -1.5t7.5 -2v-22h-72l-98 162h-81v-108q0 -23 28 -32v-22h-109v22q31 6 31 32v245q0 40 -31 42v17zM374 365h51q97 0 97 76q0 24 -9.5 39t-27 20.5t-29.5 7t-31 1.5
h-51v-144z" />
    <glyph glyph-name="degree" unicode="&#xb0;" horiz-adv-x="340" 
d="M70 608q0 42 29 71t71 29t71 -29t29 -71t-29 -71t-71 -29t-71 29t-29 71zM106 608q0 -26 19 -45t45 -19t45 19t19 45t-19 45t-45 19t-45 -19t-19 -45z" />
    <glyph glyph-name="plusminus" unicode="&#xb1;" horiz-adv-x="718" 
d="M384 134h-50v249h-264v50h264v258h50v-258h264v-50h-264v-249zM70 0v50h578v-50h-578z" />
    <glyph glyph-name="acute" unicode="&#xb4;" horiz-adv-x="2" 
d="M235 519l118 130q18 20 42 20q17 0 26 -10t7 -27t-19 -32q-13 -10 -33 -21l-130 -76z" />
    <glyph glyph-name="mu" unicode="&#xb5;" horiz-adv-x="491" 
d="M372 385h70l-61 -289q-6 -27 -6 -38q0 -22 20 -22q19 0 51 22l15 -16q-60 -50 -95 -50q-18 0 -32.5 10.5t-14.5 33.5q0 19 8 51h-3q-22 -42 -58 -68.5t-76 -26.5q-48 0 -66 29.5t-17 64.5h-6q-6 -66 -8 -103q-2 -73 -4 -87q-7 -80 -56 -80q-22 0 -31.5 17t2.5 67
q3 10 14 38.5t20 63.5t23 101l58 282h70l-48 -231q-9 -51 -9 -67q0 -54 70 -54q27 0 49 11t34 25.5t21.5 34.5t12.5 31t5 21z" />
    <glyph glyph-name="paragraph" unicode="&#xb6;" horiz-adv-x="605" 
d="M244 -197v626q-20 -1 -39.5 1t-45 10.5t-44.5 23t-32 42t-13 64.5q0 66 44 95.5t115 29.5h306v-39h-55v-853h-60v853h-116v-853h-60z" />
    <glyph glyph-name="periodcentered" unicode="&#xb7;" horiz-adv-x="244" 
d="M70 326q0 22 15 37t37 15t37 -15t15 -37t-15 -37t-37 -15t-37 15t-15 37z" />
    <glyph glyph-name="guillemotright" unicode="&#xbb;" horiz-adv-x="532" 
d="M293 39l-18 17l146 135v4l-173 153l20 19l234 -173zM92 39l-17 17l153 135v4l-178 155l18 17l233 -173z" />
    <glyph glyph-name="onequarter" unicode="&#xbc;" horiz-adv-x="754" 
d="M270 306h-212l5 26q52 2 65.5 10t20.5 42l47 220q7 23 3.5 31.5t-26.5 9.5l-45 2l5 23q85 9 146 31l-67 -317q-7 -32 3.5 -41t60.5 -11zM679 698l-578 -735l-23 20l576 733zM661 112h-70l-10 -45q-5 -26 4.5 -33t52.5 -10l-5 -24h-197l5 24q49 2 61 9t17 34l10 45h-199
l5 21q189 189 271 261h45l-53 -247h71zM536 147l38 176h-3q-21 -21 -90.5 -84t-96.5 -92h152z" />
    <glyph glyph-name="onehalf" unicode="&#xbd;" horiz-adv-x="754" 
d="M254 306h-212l5 26q51 2 65 10t21 42l47 220q6 23 2.5 31.5t-25.5 9.5l-45 2l5 23q85 9 146 31l-68 -317q-7 -32 4 -41t60 -11zM661 698l-577 -735l-24 21l576 732zM675 121l19 -8q-7 -13 -28.5 -54t-29.5 -59h-285l4 22q134 84 175 118q77 63 89 119q8 39 -9.5 62.5
t-57.5 23.5q-56 0 -128 -74l-15 16l44 47q24 26 63.5 43.5t75.5 17.5q52 0 81.5 -30t18.5 -86q-9 -46 -52 -87.5t-123 -89.5l-80 -49v-3h146q30 0 47.5 13.5t44.5 57.5z" />
    <glyph glyph-name="threequarters" unicode="&#xbe;" horiz-adv-x="754" 
d="M290 530l-1 -3q47 -7 68.5 -29.5t13.5 -57.5q-14 -65 -84 -104.5t-136 -39.5q-52 0 -83 31q-15 17 -6 35q9 16 24 23q10 6 16 -1q31 -54 87 -55q44 0 73 24.5t37 62.5q9 40 -11 59t-59 20q-23 0 -66 -10v23q73 20 107.5 39t40.5 50q5 27 -10 42.5t-51 15.5
q-55 0 -118 -68l-13 16l46 49q58 48 120 48h1q52 0 77.5 -25.5t17.5 -63.5q-6 -30 -45 -57q-23 -14 -46 -24zM669 112h-70l-10 -45q-5 -26 4 -33t53 -10l-5 -24h-197l5 24q48 2 60 9t18 34l9 45h-198l5 21q179 181 270 261h46l-53 -247h71zM544 147l37 176h-3
q-20 -20 -89.5 -83.5t-96.5 -92.5h152zM701 698l-577 -735l-24 20l576 733z" />
    <glyph glyph-name="multiply" unicode="&#xd7;" horiz-adv-x="580" 
d="M530 71l-40 -37l-178 198l-177 -197l-38 36l181 200l-180 199l40 37l177 -196l177 197l39 -36l-183 -201z" />
    <glyph glyph-name="divide" unicode="&#xf7;" horiz-adv-x="576" 
d="M312 395h-1q-16 0 -29 14t-13 33t13 33t30 14q18 0 30.5 -14t12.5 -33q0 -20 -12.5 -33.5t-30.5 -13.5zM528 252h-436v55h436v-55zM311 165h2q15 0 28 -14.5t13 -33.5t-13 -33t-30 -14q-18 0 -30.5 14t-12.5 33q0 20 12.5 34t30.5 14z" />
    <glyph glyph-name="pi" unicode="&#x3c0;" horiz-adv-x="554" 
d="M544 472l22 -8q-21 -50 -53 -86q-17 -4 -69 -4q-20 -65 -55 -239q-20 -92 24 -92q23 0 57 31l9 -19q-51 -67 -115 -67q-41 0 -57.5 28t-1.5 99q25 115 67 261q-116 2 -158 2l-4 -19q-22 -104 -54 -188t-52.5 -119t-33.5 -47q-40 -16 -62 -17l-2 16q63 62 107 169.5
t65 206.5q-32 0 -57.5 -7t-39.5 -14.5t-40 -24.5l-10 21q1 1 14 13t16.5 15t17 14t21.5 15l23 11.5t27.5 10.5t30 6t35.5 3q4 0 104.5 -2t157.5 -2q23 0 36.5 6.5t29.5 26.5z" />
    <glyph glyph-name="afii10023" unicode="&#x401;" horiz-adv-x="651" 
d="M157 700h285q9 0 113 6q44 2 56 2l-29 -132h-30q0 26 -7 44t-14 26.5t-25 12.5t-23.5 4h-25.5h-160l-59 -285h107q19 0 32 1.5t30.5 7t31 19.5t20.5 36h30l-39 -176h-30q1 24 -5.5 39.5t-20.5 22.5t-27 9t-33 2h-104l-64 -300h139q78 0 132 22t99 91h30l-47 -152h-509
l7 34q33 4 50 22t25 55l100 477q4 24 4 31q0 41 -46 47zM233 856q0 22 16.5 39t39.5 17t39.5 -17t16.5 -39t-16.5 -39t-39.5 -17t-39.5 17t-16.5 39zM438 856q0 22 17 39t39 17t39 -17t17 -39t-17 -39t-39 -17t-39 17t-17 39z" />
    <glyph glyph-name="afii10051" unicode="&#x402;" horiz-adv-x="699" 
d="M659 708l-29 -135h-34q1 50 -19 69t-72 19h-142l-60 -284q87 38 154 38q101 0 150.5 -44.5t49.5 -108.5q0 -26 -8.5 -58.5t-28.5 -70.5t-48.5 -69t-74.5 -51.5t-100 -20.5q-27 0 -47.5 6.5t-30.5 15t-15.5 20.5t-6.5 19t-1 15q0 25 16.5 39.5t37.5 14.5t31 -11.5
t10 -27.5q0 -2 -0.5 -4.5t-1.5 -5.5t-1 -5q-4 -12 -4 -17q0 -20 35 -20q39 0 68 27t42.5 68t19.5 75t6 61q0 108 -110 108q-62 0 -150 -33l-71 -337h-148l7 34q21 2 36.5 11t23 23.5t10.5 23.5t6 23l114 546h-102q-48 0 -78.5 -20t-48.5 -68h-34l29 135q122 -8 283 -8
q211 0 337 8z" />
    <glyph glyph-name="afii10052" unicode="&#x403;" horiz-adv-x="674" 
d="M10 0l7 34q33 4 50 22t25 57l100 475q5 24 5 35q0 39 -49 43l7 34h256q60 0 139 8l-11 -172h-30q1 20 -4 39.5t-17 40t-37 33t-60 12.5h-94l-116 -550q-4 -22 -4 -32q0 -39 46 -45l-7 -34h-206zM360 758l131 100q20 16 40 22q9 3 19 3q17 0 27 -10t8 -26q-3 -23 -29 -40
q-11 -7 -39 -16l-149 -54z" />
    <glyph glyph-name="afii10053" unicode="&#x404;" horiz-adv-x="706" 
d="M586 140l23 -18q-141 -130 -296 -130q-73 0 -127.5 23.5t-83.5 56t-46 76t-21.5 74t-4.5 60.5q0 55 21 131t75 145q119 150 294 150q64 0 136 -22q47 -14 69 -14q8 0 26 12h15l-25 -154h-30q-35 141 -189 141q-39 0 -80.5 -16.5t-83 -50t-74.5 -94.5t-48 -140h5
q63 69 129 69q39 0 77 -19q8 -4 22 -13t19 -12q48 -28 67 -28q14 0 26 5.5t19 11.5t23 22l23 -18q-25 -41 -68 -66.5t-85 -25.5q-36 0 -98 35q-54 31 -90 31q-34 0 -57 -26.5t-23 -67.5q0 -24 2.5 -47.5t15 -61t33.5 -64t63.5 -46.5t99.5 -20q60 0 132 30.5t115 80.5z" />
    <glyph glyph-name="afii10054" unicode="&#x405;" horiz-adv-x="531" 
d="M481 534h-31q-51 135 -162 135q-48 0 -71 -27.5t-23 -64.5q0 -35 27 -67.5t111 -106.5q70 -62 98 -100.5t28 -90.5q0 -103 -63.5 -161.5t-146.5 -58.5q-58 0 -123 25q-33 14 -39 14q-10 0 -20.5 -8.5t-15.5 -22.5h-20l-20 191h30q22 -73 78 -116.5t115 -43.5
q71 0 108 44.5t37 98.5q0 23 -8 43.5t-29 44.5t-30 33t-39 36q-6 6 -27 24.5t-27 24t-22.5 21.5t-22 23.5t-17 22t-15.5 24t-10 24t-8 28.5t-2 29q0 61 44 108.5t124 47.5q33 0 72 -12q11 -4 24 -9.5t21 -8.5t13 -3q9 0 16.5 7.5t10.5 17.5h22z" />
    <glyph glyph-name="afii10055" unicode="&#x406;" horiz-adv-x="362" 
d="M10 0l7 34q33 4 50 22t25 55l100 477q4 20 4 34q0 40 -47 44l7 34h206l-7 -34q-37 -6 -51.5 -25.5t-21.5 -53.5l-100 -476q-4 -22 -4 -32q0 -39 45 -45l-7 -34h-206z" />
    <glyph glyph-name="afii10056" unicode="&#x407;" horiz-adv-x="384" 
d="M30 0l7 34q33 4 50 22t25 55l100 477q4 20 4 34q0 40 -47 44l7 34h206l-7 -34q-37 -6 -51.5 -25.5t-21.5 -53.5l-100 -476q-4 -22 -4 -32q0 -39 45 -45l-7 -34h-206zM160 856q0 22 17 39t39 17t39 -17t17 -39t-17 -39t-39 -17t-39 17t-17 39zM330 856q0 22 17 39t39 17
t39 -17t17 -39t-17 -39t-39 -17t-39 17t-17 39z" />
    <glyph glyph-name="afii10057" unicode="&#x408;" horiz-adv-x="383" 
d="M383 700l-8 -34q-63 -7 -78 -77l-99 -478q-27 -131 -47 -179q-41 -97 -110 -97q-30 0 -50.5 17t-20.5 42q0 16 8 28.5t25 12.5t26.5 -8.5t9.5 -20.5q0 -2 -0.5 -5t-0.5 -5q0 -9 5.5 -15t14.5 -6q35 0 35 101q0 67 21 168l93 444q2 10 2 36q0 37 -48 42l7 34h215z" />
    <glyph glyph-name="afii10058" unicode="&#x409;" horiz-adv-x="972" 
d="M394 700h196l9 -306h83q31 0 58.5 -3t64.5 -14t62.5 -29.5t44.5 -54.5t20 -84q0 -22 -3 -43.5t-18.5 -53.5t-42 -55t-78.5 -40t-122 -17h-149l-15 575h-10q-88 -265 -198 -421q-47 -67 -105.5 -114.5t-119.5 -47.5q-34 0 -52.5 17t-18.5 39q0 20 12.5 36.5t41.5 16.5
q22 0 47.5 -9.5t41.5 -11.5q42 -5 92 57q60 74 108 168q57 112 98 230q20 56 20 88q0 21 -16 32t-39 11h-21zM600 355l9 -316h11q68 0 110.5 12.5t71.5 54.5q35 51 35 109q0 38 -12 65t-29 41t-43.5 22t-46.5 10t-46 2h-60z" />
    <glyph glyph-name="afii10059" unicode="&#x40a;" horiz-adv-x="1012" 
d="M767 700l-8 -34q-27 -4 -42.5 -17t-20.5 -24.5t-9 -33.5l-41 -197h76q31 0 59 -3t65 -14t63 -29.5t44.5 -54.5t18.5 -84q0 -22 -3.5 -43.5t-19 -53.5t-41.5 -55t-78 -40t-122 -17h-294l7 34q33 4 50 22t25 55l50 238h-314l-50 -238q-4 -22 -4 -32q0 -39 45 -45l-7 -34
h-206l7 34q33 4 50 22t25 55l100 477q4 20 4 34q0 40 -47 44l7 34h206l-7 -34q-21 -4 -35.5 -12t-22 -22t-9.5 -21.5t-6 -23.5l-42 -199h314l42 200q4 20 4 34q0 40 -47 44l7 34h207zM638 355l-67 -316h89q74 0 114.5 13.5t67.5 52.5q35 51 35 108q0 45 -15 75t-42.5 43.5
t-55 18.5t-64.5 5h-62z" />
    <glyph glyph-name="afii10060" unicode="&#x40b;" horiz-adv-x="698" 
d="M658 708l-29 -135h-30q1 49 -21.5 68.5t-73.5 19.5h-141l-55 -263h4q85 69 179 69q31 0 59 -6t54 -26t32 -52q1 -5 1 -29q0 -9 -7 -42l-43 -208q-5 -25 -5 -35q0 -16 13 -26.5t31 -8.5l-7 -34h-188l7 34q46 5 59 70l46 220q5 21 5 44q0 56 -83 56q-88 0 -169 -82
l-48 -227q-5 -26 -5 -42q0 -13 13.5 -25t33.5 -14l-7 -34h-207l7 34q21 2 36 11t22.5 23.5t10.5 23.5t6 23l115 546h-102q-50 0 -81 -19.5t-50 -68.5h-30l29 135q122 -8 282 -8q211 0 337 8z" />
    <glyph glyph-name="afii10061" unicode="&#x40c;" horiz-adv-x="755" 
d="M243 402l-61 -291q-4 -22 -4 -32q0 -39 45 -45l-7 -34h-206l7 34q33 4 50 22t25 55l100 477q4 20 4 34q0 40 -47 44l7 34h206l-7 -34q-21 -4 -35.5 -12t-22 -22t-9.5 -21.5t-6 -23.5l-31 -146q20 1 40 6q77 19 150 108q11 14 30 38t29 36.5t25 27.5t29 26q34 25 74 25
q12 0 24 -3l-34 -160h-27q2 46 -31 46q-13 0 -26.5 -7.5t-20.5 -14.5t-20 -21q-60 -66 -95 -90.5t-67 -31.5l-2 -7q37 -5 65.5 -22t45 -37.5t29 -52.5t18 -55.5t11.5 -58.5t9.5 -51.5t12 -41.5t19.5 -37.5t30.5 -24t46.5 -15.5l1 -28q-18 -3 -19 -3q-63 0 -99 20
q-15 8 -27.5 20t-21 22t-16 28t-11.5 26.5t-9.5 31.5t-6.5 29t-5 32t-5 29q-6 35 -15 61t-25.5 52.5t-45 42t-68.5 16.5zM413 758l131 100q20 16 40 22q9 3 19 3q17 0 27 -10t8 -26q-3 -23 -29 -40q-11 -7 -39 -16l-149 -54z" />
    <glyph glyph-name="afii10062" unicode="&#x40e;" horiz-adv-x="640" 
d="M288 700l-7 -34q-19 0 -33.5 -11t-14.5 -28q0 -13 6 -35l93 -341l6 1l194 327q25 43 25 53q0 16 -12.5 25t-32.5 9h-11l7 34h174l-7 -34q-43 -2 -81 -67l-247 -416q-63 -107 -115.5 -149t-111.5 -42q-36 0 -68 17t-32 49q0 20 13.5 32t36.5 12q26 0 45 -21q1 -1 5.5 -6.5
t7.5 -8.5t7.5 -6.5t10.5 -5.5t13 -2q8 0 17 3t17.5 10.5t15 13t16 17.5t13.5 17.5t13.5 19t10.5 15.5l-118 438q-4 15 -8.5 25.5t-13 25t-22.5 22t-32 7.5l7 34h213zM400 741q-68 0 -125 33t-57 86q0 45 29.5 66t65.5 21q27 0 41 -12.5t14 -30.5q0 -14 -9.5 -26t-29.5 -12
q-6 0 -25.5 7.5t-27.5 7.5q-21 0 -21 -21q0 -13 13 -26t48 -24t86 -11q70 0 109 19t39 42q0 21 -20 21q-8 0 -23 -5q-22 -10 -30 -10q-21 0 -30.5 12t-9.5 26q0 18 14 30.5t41 12.5q38 0 67 -23.5t29 -63.5q0 -56 -59.5 -87.5t-128.5 -31.5z" />
    <glyph glyph-name="afii10145" unicode="&#x40f;" horiz-adv-x="850" 
d="M157 700h208l-7 -34q-34 -4 -51 -23.5t-25 -57.5l-115 -546h395l115 546q15 77 -42 81l7 34h208l-7 -34q-33 -3 -50.5 -23.5t-25.5 -57.5l-99 -470q-3 -16 -3 -44q0 -34 45 -37l-7 -34h-178q-133 0 -206 -259h-33q8 72 8 96q0 50 -10.5 85t-28 50.5t-33 21.5t-33.5 6
h-179l7 34q61 5 76 81l99 470q3 13 3 45t-45 36z" />
    <glyph glyph-name="afii10017" unicode="&#x410;" horiz-adv-x="672" 
d="M-50 0l7 34q23 3 42 10.5t35 22.5t24 24t22.5 29.5t17.5 24.5l428 563h36l-8 -605q-1 -40 14 -54t54 -15l-7 -34h-207l7 34q34 2 44.5 15.5t11.5 47.5l3 116h-272l-88 -116q-22 -30 -22 -40q0 -25 41 -23l-6 -34h-177zM471 252l7 318h-6l-238 -314v-4h237z" />
    <glyph glyph-name="afii10018" unicode="&#x411;" horiz-adv-x="626" 
d="M157 700h290q16 0 109 8l-11 -170h-30q-5 65 -38 94t-100 29h-80l-57 -270h71q235 0 235 -190q0 -38 -13.5 -71.5t-43 -64t-85.5 -48t-132 -17.5h-262l7 34q32 4 49 22t25 56l104 493q1 5 1 24q0 18 -9.5 24.5t-30.5 11.5q-4 1 -6 1zM232 352l-66 -313h96
q60 0 101.5 17.5t61.5 46.5t28 57.5t8 60.5q0 54 -35 92.5t-121 38.5h-73z" />
    <glyph glyph-name="afii10019" unicode="&#x412;" horiz-adv-x="648" 
d="M155 700h232q31 0 60.5 -6.5t60.5 -22t50.5 -49t19.5 -80.5q0 -66 -38.5 -115t-105.5 -63v-10q41 -10 69.5 -29.5t41 -44t17.5 -45t5 -40.5q0 -37 -11 -68t-38.5 -61.5t-82.5 -48t-134 -17.5h-291l7 34q58 6 73 81l99 473q0 1 2 9t3 17v14q-1 7 -4 14t-14 15t-28 9z
M294 661l-60 -288h85q49 0 84.5 15.5t54 42.5t26.5 56t8 62q0 112 -142 112h-56zM164 39h130q48 0 83.5 14.5t53 34t27.5 46.5t12 43t2 33q0 124 -190 124h-56z" />
    <glyph glyph-name="afii10020" unicode="&#x413;" horiz-adv-x="550" 
d="M10 0l7 34q33 4 50 22t25 57l100 475q5 24 5 35q0 39 -49 43l7 34h256q60 0 139 8l-11 -172h-30q1 20 -4 39.5t-17 40t-37 33t-60 12.5h-94l-116 -550q-4 -22 -4 -32q0 -39 46 -45l-7 -34h-206z" />
    <glyph glyph-name="afii10021" unicode="&#x414;" horiz-adv-x="671" 
d="M333 700h318l-7 -34q-54 -9 -69 -80l-98 -471q-8 -40 -8 -51q0 -14 6 -21.5t25 -7.5q4 0 11.5 0.5t11.5 0.5q20 0 28 -11t8 -24q0 -40 -46.5 -103t-76.5 -63q-9 0 -14 5t-5 10q0 4 4.5 11t14.5 21.5t18 32.5q11 20 11 36q0 48 -64 48h-288q-22 0 -31.5 -0.5t-25 -3
t-22 -8t-12 -16t-5.5 -26.5q0 -17 5 -35q4 -15 13 -34t9 -25q0 -16 -15 -16q-24 0 -61.5 60.5t-37.5 100.5q0 38 30 39h21q59 2 119 89q117 165 211 331q51 91 66.5 123t15.5 50q0 42 -66 38zM370 38l131 623h-14q-27 0 -53 -55q-39 -80 -65.5 -130.5t-84 -146
t-130.5 -200.5q-6 -8 -12 -17t-10 -14t-7.5 -11t-5.5 -9t-4 -6.5t-2.5 -6t-0.5 -5.5q0 -22 44 -22h214z" />
    <glyph glyph-name="afii10022" unicode="&#x415;" horiz-adv-x="646" 
d="M157 700h285q9 0 113 6q44 2 56 2l-29 -134h-30q0 26 -7 44t-14 26.5t-25 12.5t-23.5 4h-25.5h-160l-60 -283h108q19 0 32 1.5t30.5 7t31 19.5t20.5 36h30l-39 -176h-30q1 24 -5.5 39.5t-20.5 22.5t-27 9t-33 2h-105l-63 -300h139q78 0 132 22t99 91h30l-47 -152h-509
l7 34q33 4 50 22t25 55l100 477q4 24 4 31q0 41 -46 47z" />
    <glyph glyph-name="afii10024" unicode="&#x416;" horiz-adv-x="905" 
d="M448 474l25 114q3 17 4 26v14q-4 34 -47 38l7 34h206l-7 -34q-21 -4 -35.5 -12t-22 -22t-9.5 -21.5t-6 -23.5l-24 -113q38 0 78 26t92 98q50 70 72 88q27 22 53 22h36l-35 -160h-30q-6 45 -33 45q-5 0 -9.5 -2t-8 -4t-8.5 -7.5t-6.5 -7.5t-6.5 -8.5t-6 -7.5
q-27 -35 -55 -58.5t-69 -33.5l-2 -7q46 -12 83.5 -39t59.5 -62q23 -36 31 -85.5t6.5 -76.5t-6.5 -77q-1 -19 -2 -36t10 -31t35 -16l-7 -34h-207l7 34q37 1 52 26t23 77q21 137 -22 211q-44 77 -133 87l-68 -324q-4 -22 -4 -32q0 -39 45 -45l-7 -34h-206l7 34q33 4 50 22
t25 55l68 324q-134 -20 -211 -153q-23 -41 -45.5 -108.5t-22.5 -103.5q0 -6 2 -12t11.5 -14.5t25.5 -9.5l-7 -34h-194l7 34q27 6 41.5 24t26.5 51q6 17 14 44t13.5 43t16 39.5t23.5 47.5q85 149 252 180l2 8q-54 17 -93 73q-3 4 -11 16.5t-12 17t-12.5 10t-17.5 5.5
q-18 0 -30 -14.5t-16 -30.5h-30l34 160q71 4 113 -79q3 -5 15 -30t16 -32t16 -26t21.5 -27.5t25 -20t33.5 -19.5z" />
    <glyph glyph-name="afii10025" unicode="&#x417;" horiz-adv-x="682" 
d="M192 535h-30l43 161h20q12 -16 24.5 -18t35.5 5q7 2 27 8l30 9t29 5.5t39 2.5q104 0 163 -51t59 -113q0 -47 -28 -93.5t-76 -78.5v-10q33 -28 49.5 -70t16.5 -83q0 -81 -76 -149t-195 -68q-92 0 -180 43q-7 3 -22.5 11.5t-22.5 11.5t-16.5 6.5t-16.5 3.5q-20 0 -45 -25
l-20 17q47 88 101 88q28 0 86 -46q2 -2 13.5 -11t15 -11.5l14 -10t15.5 -10.5l15 -9t17 -8t17 -5.5t19 -4.5t19 -1q68 0 117.5 54.5t49.5 132.5q0 69 -38 114q-108 -61 -191 -61q-57 0 -82.5 21.5t-25.5 45.5q0 39 41 67.5t118 28.5q84 0 150 -32q35 24 54 61.5t19 77.5
q0 66 -44.5 97t-106.5 31q-75 0 -124.5 -40t-76.5 -94zM422 367q-49 33 -123 33q-50 0 -77.5 -16t-27.5 -39q0 -2 0.5 -5.5t4.5 -10.5t10.5 -12.5t20 -9.5t32.5 -4q91 0 160 64z" />
    <glyph glyph-name="afii10026" unicode="&#x418;" horiz-adv-x="751" 
d="M156 700h206l-7 -34q-37 -6 -51.5 -25.5t-21.5 -53.5l-74 -354h9l364 356q4 16 4 32q0 8 -1 15t-12.5 18t-33.5 12l7 34h206l-7 -34q-37 -6 -51.5 -25.5t-21.5 -53.5l-100 -476q-4 -22 -4 -32q0 -39 45 -45l-7 -34h-206l7 34q33 4 50 22t25 55l84 401h-6l-368 -360
l-9 -41q-4 -22 -4 -32q0 -39 45 -45l-7 -34h-206l7 34q33 4 50 22t25 55l100 477q4 22 4 33q0 43 -47 45z" />
    <glyph glyph-name="afii10027" unicode="&#x419;" horiz-adv-x="751" 
d="M156 700h206l-7 -34q-34 -7 -49.5 -23.5t-23.5 -55.5l-74 -354h9l365 356q3 17 3 32q0 41 -46 45l7 34h205l-7 -34q-21 -4 -35.5 -12t-22 -22t-9.5 -21.5t-6 -23.5l-100 -476q-4 -22 -4 -32q0 -21 10.5 -30.5t34.5 -14.5l-7 -34h-205l7 34q33 4 50 22.5t25 54.5l84 401
h-7l-368 -360l-9 -41q-4 -22 -4 -32q0 -39 45 -45l-7 -34h-206l7 34q33 4 50 22t25 55l100 477q4 22 4 33q0 43 -47 45zM453 741q-68 0 -125 33t-57 86q0 45 29.5 66t65.5 21q27 0 41 -12.5t14 -30.5q0 -14 -9.5 -26t-29.5 -12q-6 0 -25.5 7.5t-27.5 7.5q-21 0 -21 -21
q0 -13 13 -26t48 -24t86 -11q70 0 109 19t39 42q0 6 -3 12q-6 9 -17 9q-8 0 -23 -5q-22 -10 -30 -10q-21 0 -30.5 12t-9.5 26q0 18 14 30.5t41 12.5q38 0 67 -23.5t29 -63.5q0 -56 -59.5 -87.5t-128.5 -31.5z" />
    <glyph glyph-name="afii10028" unicode="&#x41a;" horiz-adv-x="657" 
d="M243 402l-61 -291q-4 -22 -4 -32q0 -39 45 -45l-7 -34h-206l7 34q33 4 50 22t25 55l100 477q4 20 4 34q0 40 -47 44l7 34h206l-7 -34q-21 -4 -35.5 -12t-22 -22t-9.5 -21.5t-6 -23.5l-31 -146q20 1 40 6q77 19 150 108q11 14 30 38t29 36.5t25 27.5t29 26q34 25 74 25
q12 0 24 -3l-34 -160h-27q2 46 -31 46q-13 0 -26.5 -7.5t-20.5 -14.5t-20 -21q-60 -66 -95 -90.5t-67 -31.5l-2 -7q37 -5 65.5 -22t45 -37.5t29 -52.5t18 -55.5t11.5 -58.5t9.5 -51.5t12 -41.5t19.5 -37.5t30.5 -24t46.5 -15.5l1 -28q-18 -3 -19 -3q-63 0 -99 20
q-15 8 -27.5 20t-21 22t-16 28t-11.5 26.5t-9.5 31.5t-6.5 29t-5 32t-5 29q-6 35 -15 61t-25.5 52.5t-45 42t-68.5 16.5z" />
    <glyph glyph-name="afii10029" unicode="&#x41b;" horiz-adv-x="678" 
d="M344 700h196l16 -573q0 -21 2 -34.5t8 -28.5t20 -22.5t36 -7.5l1 -34h-154l-15 575h-10q-88 -265 -198 -421q-117 -167 -225 -162q-34 1 -52.5 17.5t-18.5 38.5q0 20 12.5 36.5t41.5 16.5q26 0 61 -13q24 -8 28 -8q22 0 37 7q37 17 85.5 88t77.5 130q57 112 98 230
q20 56 20 88q0 21 -16 32t-39 11h-20z" />
    <glyph glyph-name="afii10030" unicode="&#x41c;" horiz-adv-x="868" 
d="M156 700h148l123 -420h9l275 420h157l-7 -34q-37 -6 -51.5 -25.5t-21.5 -53.5l-100 -476q-4 -22 -4 -32q0 -39 45 -45l-7 -34h-206l7 34q32 4 49.5 22t25.5 55l107 498h-6l-303 -458h-21l-132 458h-7l-103 -490q-8 -43 -8 -45q0 -40 50 -40l-8 -34h-157l8 34q17 0 30 7
t20 13t13.5 25.5t7.5 25t6 30.5l94 445q7 33 7 44q0 37 -47 42z" />
    <glyph glyph-name="afii10031" unicode="&#x41d;" horiz-adv-x="768" 
d="M416 0l7 34q33 4 50 22t25 55l50 240h-316l-50 -240q-4 -22 -4 -32q0 -39 45 -45l-7 -34h-206l7 34q33 4 50 22t25 55l100 477q4 20 4 34q0 40 -47 44l7 34h206l-7 -34q-21 -4 -35.5 -12t-22 -22t-9.5 -21.5t-6 -23.5l-42 -197h316l42 198q4 20 4 34q0 40 -47 44l7 34
h206l-7 -34q-37 -6 -51.5 -25.5t-21.5 -53.5l-100 -476q-4 -22 -4 -32q0 -39 45 -45l-7 -34h-206z" />
    <glyph glyph-name="afii10032" unicode="&#x41e;" horiz-adv-x="776" 
d="M432 708q70 0 132 -30q70 -35 116 -106t46 -167q0 -71 -23.5 -142t-68.5 -132.5t-119 -100t-165 -38.5q-126 0 -208 85t-82 215q0 129 69 240t174 153q59 23 129 23zM429 671q-56 0 -109.5 -30.5t-93.5 -91.5q-71 -109 -71 -279q0 -61 18 -108.5t47.5 -75.5t64 -42.5
t71.5 -14.5q79 0 143.5 59.5t98 147.5t33.5 182q0 73 -29 134q-55 119 -173 119z" />
    <glyph glyph-name="afii10033" unicode="&#x41f;" horiz-adv-x="761" 
d="M156 700h605l-7 -34q-37 -6 -51.5 -25.5t-21.5 -53.5l-100 -476q-4 -22 -4 -32q0 -39 45 -45l-7 -34h-206l7 34q33 4 50 22t25 55l116 550h-310l-115 -550q-4 -22 -4 -32q0 -39 45 -45l-7 -34h-206l7 34q33 4 50 22t25 55l100 477q4 20 4 34q0 40 -47 44z" />
    <glyph glyph-name="afii10034" unicode="&#x420;" horiz-adv-x="628" 
d="M206 34l-6 -34h-200l6 34q19 1 32 9.5t21 24t11 26t7 28.5l73 353q48 233 262 233q86 0 146 -46t60 -134q0 -122 -80 -217t-206 -95q-80 0 -136 50l-29 -141q-6 -30 -6 -53q0 -17 13.5 -27t31.5 -11zM247 510l-38 -183q40 -72 128 -72q53 0 91.5 31t58 79.5t28 95
t8.5 89.5q0 55 -27.5 87t-76.5 32q-137 0 -172 -159z" />
    <glyph glyph-name="afii10035" unicode="&#x421;" horiz-adv-x="668" 
d="M621 708l7 -163h-30q-50 124 -173 124q-111 0 -190.5 -105.5t-79.5 -254.5q0 -135 63.5 -199t156.5 -64q88 0 177 55l20 -25q-115 -84 -230 -84q-140 0 -223 113q-59 83 -59 180q0 87 26 162q25 71 65.5 124t87 81.5t91.5 42t88 13.5q30 0 75 -9q70 -14 71 -14
q25 0 34 23h23z" />
    <glyph glyph-name="afii10036" unicode="&#x422;" horiz-adv-x="622" 
d="M110 0l7 34q33 4 50 22t25 55l115 550h-107q-94 0 -130 -125h-30l50 172q80 -8 240 -8h158q71 0 139 8l-11 -172h-30q1 20 -4 39.5t-17 40t-37 33t-60 12.5h-69l-117 -550q-4 -22 -4 -32q0 -39 45 -45l-7 -34h-206z" />
    <glyph glyph-name="afii10037" unicode="&#x423;" horiz-adv-x="622" 
d="M288 700l-7 -34q-19 0 -33.5 -11t-14.5 -28q0 -13 6 -35l93 -341l6 1l194 327q25 43 25 53q0 16 -12.5 25t-32.5 9h-11l7 34h174l-7 -34q-43 -2 -81 -67l-247 -416q-63 -107 -115.5 -149t-111.5 -42q-36 0 -68 17t-32 49q0 20 13.5 32t36.5 12q26 0 45 -21q1 -1 5.5 -6.5
t7.5 -8.5t7.5 -6.5t10.5 -5.5t13 -2q8 0 17 3t17.5 10.5t15 13t16 17.5t13.5 17.5t13.5 19t10.5 15.5l-118 438q-4 15 -8.5 25.5t-13 25t-22.5 22t-32 7.5l7 34h213z" />
    <glyph glyph-name="afii10038" unicode="&#x424;" horiz-adv-x="928" 
d="M636 700l-7 -34q-21 -2 -36.5 -11t-23 -23.5t-10.5 -23.5t-6 -23l-10 -46h4q30 38 79.5 64t98.5 26q36 0 64.5 -13t45.5 -34.5t26.5 -38t14.5 -33.5q12 -36 12 -111q0 -37 -27 -113q-35 -97 -106.5 -156t-151.5 -59q-95 0 -135 98h-3l-11 -54q-5 -28 -5 -42q0 -15 14 -26
t33 -13l-7 -34h-205l7 34q22 2 37 11t23 23.5t11 23.5t6 23l11 54h-3q-81 -98 -175 -98q-85 0 -125.5 63.5t-40.5 151.5q0 46 18 108t60 116q40 53 92.5 86t107.5 33q47 0 85 -25t55 -65h4l10 46q5 25 5 42q0 15 -14.5 26t-33.5 13l7 34h205zM513 394l-13 -59q-8 -34 -8 -91
q0 -11 0.5 -19t5.5 -30t14.5 -36t31 -26.5t51.5 -12.5q50 0 90 35.5t62.5 89.5t34 109t11.5 103q0 125 -104 125q-19 0 -40 -6.5t-48.5 -24.5t-51 -58.5t-36.5 -98.5zM414 335l13 59q7 33 7 55q0 67 -30 100t-75 33q-98 0 -153 -122q-46 -104 -46 -187q0 -153 99 -153
q13 0 25 1.5t37 13.5t45.5 32.5t42.5 64t35 103.5z" />
    <glyph glyph-name="afii10039" unicode="&#x425;" horiz-adv-x="724" 
d="M86 700h240l-7 -34q-44 3 -44 -26q0 -9 11 -31l97 -186h6l145 166q29 32 29 47q0 28 -53 30l7 34h197l-6 -34q-28 -3 -52 -16t-37 -26t-36 -39l-178 -204l132 -252q42 -82 127 -95l-7 -34h-231l7 34q14 -1 26.5 6t12.5 20q0 10 -14 38l-110 207h-6l-166 -194
q-28 -32 -28 -45q0 -28 47 -32l-8 -34h-197l7 34q34 6 62.5 23.5t41.5 31t46 52.5l178 207l-125 240q-20 39 -46.5 56t-74.5 22z" />
    <glyph glyph-name="afii10040" unicode="&#x426;" horiz-adv-x="801" 
d="M156 700h206l-7 -34q-33 -4 -50.5 -22t-25.5 -55l-115 -550h310l115 550q4 22 4 32q0 39 -45 45l7 34h206l-7 -34q-22 -2 -37 -11t-22.5 -23.5t-9.5 -21.5t-5 -21l-100 -472q-13 -56 26 -83q5 -4 15.5 -10t16.5 -10t13.5 -13t13.5 -21q10 -20 10 -45q0 -55 -51.5 -94.5
t-130.5 -39.5q-70 0 -157 33q-47 18 -77.5 34t-49.5 23q-20 7 -43 7q-19 0 -35 -16q20 -1 32 -14.5t12 -30.5q0 -18 -12.5 -31.5t-32.5 -13.5q-17 0 -31 12t-14 33q0 40 40.5 71.5t98.5 31.5q47 0 140 -34q129 -49 192 -49q40 0 60 24t20 50q0 42 -27 55.5t-83 13.5h-516
l7 34q34 5 49 22.5t23 56.5l100 475q4 18 4 33q0 39 -44 45z" />
    <glyph glyph-name="afii10041" unicode="&#x427;" horiz-adv-x="677" 
d="M471 700h206l-7 -34q-37 -6 -51.5 -25.5t-21.5 -53.5l-100 -476q-4 -22 -4 -32q0 -39 45 -45l-7 -34h-206l7 34q33 4 50 22t25 55l44 207q-78 -29 -172 -29q-52 0 -90 11.5t-55.5 25.5t-27.5 34.5t-11.5 31t-1.5 21.5q0 31 5 52l25 123q4 22 4 34q0 40 -47 44l7 34h206
l-7 -34q-37 -6 -51.5 -25.5t-21.5 -53.5l-23 -111q-7 -35 -7 -59q0 -83 141 -83q69 0 135 24l48 230q4 20 4 34q0 40 -47 44z" />
    <glyph glyph-name="afii10042" unicode="&#x428;" horiz-adv-x="1101" 
d="M156 700h206l-7 -34q-33 -4 -50 -22t-25 -55l-116 -550h280l115 550q4 22 4 32q0 39 -45 45l7 34h206l-7 -34q-33 -4 -50 -22t-25 -55l-115 -550h280l115 550q4 22 4 32q0 25 -20 38q-7 5 -25 7l7 34h206l-7 -34q-33 -4 -50 -22t-25 -55l-100 -477q-4 -20 -4 -34
q0 -40 47 -44l-7 -34h-945l7 34q37 6 51.5 25.5t21.5 53.5l100 476q4 22 4 32q0 39 -45 45z" />
    <glyph glyph-name="afii10043" unicode="&#x429;" horiz-adv-x="1101" 
d="M156 700h206l-7 -34q-33 -4 -50 -22t-25 -55l-116 -550h280l115 550q4 22 4 32q0 39 -45 45l7 34h206l-7 -34q-33 -4 -50 -22t-25 -55l-115 -550h280l115 550q4 22 4 32q0 39 -45 45l7 34h206l-7 -34q-33 -4 -50 -22t-25 -55l-99 -475q-11 -54 17 -72l45 -30
q31 -22 31 -67q0 -23 -14 -49q-53 -95 -259 -95q-114 0 -262 46q-28 9 -70 24.5t-65 22t-42 6.5q-30 0 -51 -15v-4q16 -3 26 -15.5t10 -28.5q0 -18 -12.5 -31.5t-32.5 -13.5q-17 0 -31 12t-14 33q0 38 36 73t116 35q78 0 216 -39q176 -49 263 -49q89 0 123 46q14 19 14 38
q0 24 -8 34q-18 25 -98 25h-848l7 34q37 6 51.5 25.5t21.5 53.5l100 476q4 16 -6 44t-35 33z" />
    <glyph glyph-name="afii10044" unicode="&#x42a;" horiz-adv-x="723" 
d="M49 700h428l-7 -34q-37 -6 -51.5 -25.5t-21.5 -53.5l-40 -193h76q31 0 59 -3t65 -14t63 -29.5t44.5 -54.5t18.5 -84q0 -49 -19 -90q-34 -71 -98 -95t-147 -24h-294l7 34q33 4 51 23.5t26 55.5l114 548h-53q-28 0 -46.5 -1.5t-47 -8t-49 -19.5t-43.5 -38t-41 -60h-33z
M349 355l-66 -316h88q68 0 110.5 12.5t71.5 54.5q35 51 35 109q0 38 -12 65t-29 41t-43.5 22t-46.5 10t-46 2h-62z" />
    <glyph glyph-name="afii10045" unicode="&#x42b;" horiz-adv-x="928" 
d="M362 700l-7 -34q-21 -4 -34.5 -11t-21 -18.5t-11 -20.5t-6.5 -25l-40 -197h76q31 0 59 -3t65 -14t63 -29.5t44.5 -54.5t18.5 -84q0 -22 -3.5 -43.5t-19 -53.5t-41.5 -55t-78 -40t-122 -17h-294l7 34q33 4 50 22t25 55l100 477q4 20 4 34q0 40 -47 44l7 34h206zM234 355
l-67 -316h89q22 0 34 0.5t34 3t36 7t32.5 14t30.5 23t24 34.5t19 48q7 26 7 46q0 38 -12 65t-29 41t-43.5 22t-46.5 10t-46 2h-62zM576 0l7 34q33 4 50 22t25 55l100 477q4 20 4 34q0 40 -47 44l7 34h206l-7 -34q-37 -6 -51.5 -25.5t-21.5 -53.5l-100 -476q-4 -22 -4 -32
q0 -39 45 -45l-7 -34h-206z" />
    <glyph glyph-name="afii10046" unicode="&#x42c;" horiz-adv-x="628" 
d="M362 700l-7 -34q-21 -4 -34.5 -11t-21 -18.5t-11 -20.5t-6.5 -25l-40 -197h76q31 0 59 -3t65 -14t63 -29.5t44.5 -54.5t18.5 -84q0 -22 -3.5 -43.5t-19 -53.5t-41.5 -55t-78 -40t-122 -17h-294l7 34q33 4 50 22t25 55l100 477q4 20 4 34q0 40 -47 44l7 34h206zM234 355
l-67 -316h89q22 0 34 0.5t34 3t36 7t32.5 14t30.5 23t24 34.5t19 48q7 26 7 46q0 38 -12 65t-29 41t-43.5 22t-46.5 10t-46 2h-62z" />
    <glyph glyph-name="afii10047" unicode="&#x42d;" 
d="M139 531h-30l50 169h22q12 -23 52 -16q3 1 49.5 12.5t70.5 11.5q41 0 82 -13t80.5 -41.5t64.5 -83.5t25 -129q0 -84 -25.5 -162.5t-72.5 -143.5t-123.5 -104t-169.5 -39q-87 0 -145.5 40t-58.5 94q0 27 16 44.5t42 17.5q27 0 41 -19t14 -42q0 -11 -9 -27q-10 -18 -10 -22
q0 -9 8.5 -19t35.5 -19t68 -9q162 0 243 190q34 77 40 152h-8q-70 -56 -113 -56q-14 0 -27 3q-27 7 -47 16q-57 24 -78 24q-30 0 -58 -28l-22 12q16 31 50 56.5t65 25.5q9 0 21 -3t20 -6t25 -10t25 -10q44 -18 66 -18q36 0 65.5 33.5t29.5 86.5q0 66 -43.5 118t-125.5 52
q-70 0 -123.5 -40.5t-81.5 -97.5z" />
    <glyph glyph-name="afii10048" unicode="&#x42e;" horiz-adv-x="1082" 
d="M243 389h133q29 133 125.5 226t236.5 93q137 0 215.5 -91.5t78.5 -211.5q0 -71 -23.5 -142t-68.5 -132.5t-119 -100t-165 -38.5q-126 0 -208 85t-82 215q0 38 3 58h-133l-54 -239q-4 -22 -4 -32q0 -39 45 -45l-7 -34h-206l7 34q33 4 50 22t25 55l100 477q4 20 4 34
q0 40 -47 44l7 34h206l-7 -34q-37 -6 -52 -26t-21 -53zM735 671q-113 0 -193.5 -112.5t-80.5 -288.5q0 -61 18 -108.5t47.5 -75.5t64 -42.5t71.5 -14.5q79 0 143.5 59.5t98 147.5t33.5 182q0 111 -57 182t-145 71z" />
    <glyph glyph-name="afii10049" unicode="&#x42f;" horiz-adv-x="661" 
d="M661 700l-7 -34q-37 -6 -51.5 -25.5t-21.5 -53.5l-100 -476q-4 -22 -4 -32q0 -39 45 -45l-7 -34h-206l7 34q62 7 75 77l42 224q-117 13 -180 -113q-9 -19 -24.5 -56t-30 -64t-33.5 -50q-50 -60 -133 -60q-10 0 -32 2l6 28q6 0 9 1q18 3 33 14t26.5 30.5t18.5 34.5
t17.5 41.5t14.5 36.5q40 92 91 127q36 24 83 33l1 7q-74 14 -113 59t-39 100q0 34 13.5 65.5t43.5 61.5t86.5 48.5t133.5 18.5h236zM502 661h-60q-58 0 -100.5 -16t-63.5 -42.5t-30.5 -53t-9.5 -53.5q0 -122 151 -122h53z" />
    <glyph glyph-name="afii10065" unicode="&#x430;" horiz-adv-x="435" 
d="M375 385l-64 -307q-3 -18 -3 -20q0 -21 22 -21q17 0 50 21l15 -16q-50 -50 -105 -50q-28 0 -41.5 10.5t-12.5 37.5h-3q-47 -48 -106 -48q-40 0 -68.5 27.5t-28.5 82.5q0 104 69 197q31 43 72 68.5t81 25.5q41 0 69 -28l27 20h27zM246 107l40 187q5 20 5 36q0 32 -41 32
q-67 0 -112 -101q-33 -71 -33 -148q0 -42 17.5 -60t43.5 -18q30 0 52 21t28 51z" />
    <glyph glyph-name="afii10066" unicode="&#x431;" horiz-adv-x="442" 
d="M450 674q-3 -32 -14.5 -57t-25.5 -39.5t-37.5 -26.5t-38.5 -16.5t-41 -11.5q-174 -47 -195 -199h6q45 38 74 53.5t72 15.5q60 0 105 -42t45 -127q0 -96 -63 -164t-151 -68q-65 0 -109.5 44.5t-44.5 127.5q0 81 30 177.5t74 155.5q32 43 72.5 69t73 33t67.5 17.5t53 24.5
q17 13 22 33h26zM244 362q-55 0 -96 -65.5t-41 -162.5q0 -111 80 -111q60 0 99 63.5t39 159.5q0 116 -81 116z" />
    <glyph glyph-name="afii10067" unicode="&#x432;" horiz-adv-x="429" 
d="M36 90l30 160q11 62 64 101q58 42 134 42q64 0 92 -21q33 -24 33 -62q0 -32 -25.5 -57.5t-50.5 -35.5q-11 -5 -21 -6q42 -4 64 -28.5t22 -56.5q0 -26 -20.5 -53.5t-55.5 -46.5q-63 -34 -151 -34q-121 0 -121 57q0 10 6 41zM133 221h32q76 0 112.5 16.5t36.5 67.5
q0 20 -4 28q-12 29 -56 29q-27 0 -50 -10q-49 -22 -60 -74zM127 190l-20 -92q-5 -22 -5 -36q0 -24 18 -31.5t52 -7.5q62 0 105 38q26 24 26 63q0 33 -22.5 49.5t-56.5 16.5h-97z" />
    <glyph glyph-name="afii10068" unicode="&#x433;" horiz-adv-x="340" 
d="M38 301l-13 13q45 48 99 69q27 10 60 10q37 0 59.5 -21t22.5 -55q0 -15 -4.5 -30t-16 -35t-18.5 -30.5t-25.5 -36.5t-23.5 -33q-37 -51 -37 -80q0 -33 38 -33q47 0 107 58l14 -13q-82 -92 -158 -92q-9 0 -19 2t-27.5 8t-28.5 23t-11 43q0 10 2.5 21t5 19.5t9.5 21
t10.5 19t14 21t14.5 19.5t17.5 22t17.5 22q37 48 41 70q5 24 -9 36.5t-36 12.5q-42 0 -105 -51z" />
    <glyph glyph-name="afii10069" unicode="&#x434;" horiz-adv-x="468" 
d="M438 385l-4 -22q-20 1 -31 -5.5t-13 -12.5t-5 -20l-61 -292q65 3 65 -36q0 -21 -26 -51q-40 -49 -60 -49q-7 0 -7 4q0 5 14 29q15 26 15 40q0 30 -40 30h-209q-32 0 -32 -26q0 -20 10 -45q8 -16 8 -26q0 -6 -8 -6q-14 0 -34.5 28.5t-28.5 50.5q-6 15 -6 33q0 12 6.5 18
t11.5 6.5t15 0.5q38 0 65 45l121 203q27 46 27 57q0 24 -34 24l5 22h236zM254 31l68 323q-27 1 -41.5 -8.5t-30.5 -36.5l-136 -232q-12 -21 -12 -29q0 -17 25 -17h127z" />
    <glyph glyph-name="afii10070" unicode="&#x435;" horiz-adv-x="370" 
d="M311 109l19 -15q-71 -102 -162 -102q-37 0 -65 14.5t-43 38.5t-22.5 51t-7.5 55t12 64q24 77 81.5 127.5t118.5 50.5q37 0 60.5 -20.5t23.5 -49.5q0 -41 -32 -76t-97 -35q-29 0 -50 5l6 26q18 -2 27 -2q38 0 65 22t27 56q0 24 -15.5 33.5t-30.5 9.5q-36 0 -69 -33.5
t-48 -87.5q-9 -35 -9 -70q0 -64 26 -95.5t65 -31.5q66 0 120 65z" />
    <glyph glyph-name="afii10072" unicode="&#x436;" horiz-adv-x="730" 
d="M405 224h50q24 75 78.5 122t104.5 47q34 0 50.5 -16t16.5 -36q0 -13 -7.5 -25t-26.5 -12q-32 0 -32 32q0 1 4 13q0 1 1 3q2 4 2 6q0 12 -14 12q-21 0 -44 -21q-41 -37 -58 -99.5t-17 -112.5q0 -34 7 -57t18 -32.5t19.5 -12.5t16.5 -3q18 0 39 14t35 31l17 -10
q-52 -75 -116 -75q-46 0 -78.5 34t-32.5 98q0 27 10 69h-50l-39 -193h-64l39 193h-50q-14 -59 -47 -108.5t-76 -73.5q-35 -19 -68 -19q-35 0 -51.5 16t-16.5 36q0 13 7.5 25t26.5 12q32 0 32 -32q0 -2 -2 -8q-1 -1 -1 -2.5t-1 -2.5q0 -1 -1 -3q-2 -4 -2 -6q0 -12 14 -12
q23 0 46 21q37 32 55 93.5t18 118.5q0 105 -61 105q-18 0 -39.5 -14t-34.5 -31l-17 10q52 75 116 75q47 0 79 -34t32 -98q0 -13 -3 -37h52l33 161h64z" />
    <glyph glyph-name="afii10073" unicode="&#x437;" horiz-adv-x="426" 
d="M134 282h-22l12 103h20q11 -17 42 -7q39 15 83 15t78 -23.5t34 -64.5q0 -61 -57 -95l1 -4q45 -28 45 -78q0 -57 -46 -96.5t-113 -39.5q-34 0 -63 8.5t-44.5 17.5t-37.5 25q-17 13 -27 13q-18 0 -39 -14l1 25q47 42 80 42q16 0 36 -24l22 -27q16 -19 30.5 -27t40.5 -8
q44 0 64.5 26.5t20.5 56.5q0 35 -18 68q-52 -30 -101 -30q-26 0 -41.5 10.5t-18.5 19.5t-3 19q0 22 16.5 39.5t58.5 17.5q47 0 98 -22q27 37 27 65q0 32 -19.5 50.5t-50.5 18.5q-36 0 -67.5 -20.5t-41.5 -59.5zM253 201q-38 24 -78 24q-18 0 -27.5 -8.5t-9.5 -20.5
t10.5 -19.5t26.5 -7.5q35 0 78 32z" />
    <glyph glyph-name="afii10074" unicode="&#x438;" horiz-adv-x="485" 
d="M355 385h70l-64 -307q-3 -18 -3 -20q0 -21 22 -21q17 0 50 21l15 -16q-51 -50 -105 -50t-54 43q0 18 5 43l12 61h-6q-38 -53 -93 -100t-106 -47q-31 0 -46.5 16t-15.5 43q0 9 4 29l42 205q5 23 5 29q0 22 -23 22h-34l5 22q84 4 132 35h8l-63 -300q-4 -18 -4 -26
q0 -22 21 -22q30 0 70 35.5t71 76.5q52 69 66 139z" />
    <glyph glyph-name="afii10075" unicode="&#x439;" horiz-adv-x="485" 
d="M355 385h70l-64 -307q-3 -18 -3 -20q0 -21 22 -21q17 0 50 21l15 -16q-51 -50 -105 -50t-54 43q0 18 5 43l12 61h-6q-38 -53 -93 -100t-106 -47q-31 0 -46.5 16t-15.5 43q0 9 4 29l42 205q5 23 5 29q0 22 -23 22h-34l5 22q84 4 132 35h8l-63 -300q-4 -18 -4 -26
q0 -22 21 -22q30 0 70 35.5t71 76.5q52 69 66 139zM265 485q-71 0 -107 27t-36 60q0 24 20 40.5t49 16.5q37 0 37 -30q0 -24 -26 -24q-14 0 -21 11t-13 11t-11.5 -7t-5.5 -17q0 -23 35 -38q29 -12 79 -12q51 0 79 12q35 15 35 38q0 10 -5.5 17t-11.5 7t-13 -11t-21 -11
q-26 0 -26 24q0 30 37 30q29 0 49 -16.5t20 -40.5q0 -33 -36 -60t-107 -27z" />
    <glyph glyph-name="afii10076" unicode="&#x43a;" horiz-adv-x="462" 
d="M143 206l-43 -206h-70l60 285q5 25 5 29q0 22 -25 22h-33l5 22q84 4 132 35h8l-33 -159q27 0 51 12t36 24t29 33q2 2 10 13t11.5 15t12.5 14t14.5 15t14.5 12.5t16.5 11t17.5 6.5t19 3q20 0 37 -11l-20 -92h-13q-11 42 -36 42q-6 0 -12.5 -3t-12.5 -8.5t-10.5 -10
t-10.5 -12.5t-8 -10q-25 -32 -81 -63v-4q34 -6 58 -31t35 -59l19 -59q5 -17 8.5 -25t14 -16t26.5 -8q14 0 49 17l8 -15q-45 -33 -94 -33q-72 0 -94 85l-17 65q-7 29 -25 46.5t-38 17.5h-21z" />
    <glyph glyph-name="afii10077" unicode="&#x43b;" horiz-adv-x="479" 
d="M416 58l13 -17q-62 -49 -112 -49q-48 0 -48 42q0 4 5 32l49 225q4 20 4 28q0 29 -34 29q-29 0 -62 -49q-10 -16 -21 -37t-17 -36t-18.5 -45l-17.5 -42q-50 -117 -95 -139q-15 -8 -38 -8q-19 0 -31.5 12.5t-12.5 30.5q0 16 12 27.5t29 11.5q8 0 20 -5q3 -1 7.5 -4.5
t8.5 -5.5t7 -2q7 0 14.5 6t15.5 17.5t15 23t15 28t12 25.5t10.5 23.5t6.5 15.5q49 111 82.5 154t93.5 43q37 0 53.5 -17t16.5 -38q0 -10 -6 -41l-44 -207q-5 -27 -5 -28q0 -22 25 -22q18 0 47 18z" />
    <glyph glyph-name="afii10078" unicode="&#x43c;" horiz-adv-x="586" 
d="M458 385h80q-16 -23 -27 -77l-49 -230q-3 -18 -3 -20q0 -21 22 -21q17 0 50 21l15 -16q-51 -50 -105 -50q-19 0 -31.5 5t-16.5 14.5t-5 15t-1 14.5q0 15 5 37l47 221h-3l-189 -305h-16l-30 288h-4q-33 -148 -54 -199q-38 -91 -95 -91q-48 0 -48 39q0 16 10 25t24 9
q12 0 34 -12q8 -4 12 -4q13 0 20 9.5t17 32.5q24 51 47 164q11 56 11 73q0 20 -12.5 26.5t-38.5 8.5l4 22h133l27 -270h5z" />
    <glyph glyph-name="afii10079" unicode="&#x43d;" horiz-adv-x="489" 
d="M359 385h70l-64 -307q-1 -3 -1 -8.5t-1 -8.5q-1 -4 -1 -11q0 -13 22 -13q29 0 50 21l15 -16q-51 -50 -106 -50q-53 0 -53 45q0 18 5 41l26 123h-5q-28 -23 -61 -23q-21 0 -47 13q-24 12 -39 12q-18 0 -30 -16l-39 -187h-70l60 285q5 25 5 29q0 22 -25 22h-33l5 22
q84 4 132 35h9l-36 -169h6q31 19 56 19q7 0 21 -4q7 -2 24.5 -11.5t26.5 -9.5q13 0 27.5 7.5t20.5 16.5z" />
    <glyph glyph-name="afii10080" unicode="&#x43e;" horiz-adv-x="435" 
d="M235 393q67 0 111 -44q49 -49 49 -130q0 -85 -51 -150q-60 -77 -157 -77q-68 0 -112 47q-45 48 -45 131q0 76 53 143q63 80 152 80zM235 362q-69 0 -105 -88q-25 -61 -25 -140q0 -40 11 -66q20 -45 71 -45q69 0 102 71q31 66 31 160q0 52 -21 79q-23 29 -64 29z" />
    <glyph glyph-name="afii10081" unicode="&#x43f;" horiz-adv-x="483" 
d="M42 358q84 4 132 35h9l-13 -62h3q86 62 155 62q40 0 60.5 -21t20.5 -55q0 -21 -8 -56l-42 -183q-3 -11 -3 -20q0 -21 22 -21q17 0 50 21l15 -16q-51 -50 -105 -50q-19 0 -31 5t-16.5 14t-5.5 15t-1 15q0 15 5 37l42 189q6 26 6 40v6.5t-2.5 9.5t-7 11t-14 8t-23.5 4
q-38 0 -80 -26q-50 -31 -53 -50l-57 -270h-70l60 285q5 25 5 29q0 22 -25 22h-33z" />
    <glyph glyph-name="afii10082" unicode="&#x440;" horiz-adv-x="426" 
d="M-20 -184l82 419q15 79 66 118.5t111 39.5q63 0 105 -49.5t42 -130.5q0 -84 -52.5 -152.5t-133.5 -68.5q-69 0 -103 56h-2l-45 -232h-70zM135 252l-21 -111q-12 -62 13.5 -87.5t60.5 -25.5q76 0 106 116q17 66 17 115q0 57 -24.5 80t-57.5 23q-21 0 -37.5 -9.5
t-25.5 -20.5t-16.5 -29.5t-9.5 -27t-5 -23.5z" />
    <glyph glyph-name="afii10083" unicode="&#x441;" horiz-adv-x="378" 
d="M319 98l14 -15q-80 -91 -169 -91q-78 0 -114 63q-20 33 -20 96q0 60 27.5 113t72.5 88q52 41 108 41q42 0 65.5 -19t23.5 -42q0 -15 -9 -24t-22 -9q-14 0 -25 8.5t-13 25.5q0 1 -0.5 5.5t-1 6t-1.5 5t-3 5t-4.5 3.5t-7 3t-9.5 1q-16 0 -32 -8q-41 -20 -67.5 -70
t-26.5 -113q0 -44 11 -73t29 -41t31 -15.5t27 -3.5q46 0 116 60z" />
    <glyph glyph-name="afii10084" unicode="&#x442;" horiz-adv-x="727" 
d="M42 358q84 4 132 35h9l-13 -62h3q86 62 155 62q33 0 54.5 -17t26.5 -45h6q82 62 153 62q45 0 65 -23t20 -53q0 -19 -8 -56l-42 -183q-3 -11 -3 -20q0 -21 22 -21q17 0 50 21l15 -16q-51 -50 -105 -50t-54 45q0 18 5 41l42 189q6 26 6 40q0 7 -1 13t-12.5 16t-33.5 10
q-33 0 -79.5 -26t-53.5 -59l-57 -261h-70l57 267q6 30 6 40v6.5t-2.5 9.5t-7 11t-14 8t-23.5 4q-37 0 -80 -27q-49 -31 -53 -49l-57 -270h-70l60 285q5 25 5 29q0 22 -25 22h-33z" />
    <glyph glyph-name="afii10085" unicode="&#x443;" horiz-adv-x="478" 
d="M40 358q84 4 132 35h9l-55 -266q-5 -22 -5 -48q0 -21 14 -31.5t34 -10.5q45 0 107 48q6 5 11.5 11.5t9.5 11t7.5 12.5t5.5 11.5t4.5 13.5t3.5 12.5t3.5 14t2.5 12.5l22 102q5 22 5 28q0 22 -24 22h-33l5 22q84 4 132 35h7l-65 -309q-20 -98 -52 -159t-96 -92
q-36 -17 -67 -17q-46 0 -87 21.5t-41 57.5q0 20 11 33.5t27 13.5q35 0 39 -34v-25q0 -18 13 -27t32 -9q89 0 128 139q3 11 8 32t11 42h-6q-86 -68 -148 -68q-42 0 -69 23.5t-27 68.5q0 23 4 42l34 159q5 27 5 29q0 22 -24 22h-33z" />
    <glyph glyph-name="afii10086" unicode="&#x444;" horiz-adv-x="612" 
d="M260 -184h-70l41 205h-4q-38 -29 -80 -29q-70 0 -101 66q-16 35 -16 90q0 103 71 183q54 62 124 62q40 0 71 -28h2l12 63q4 21 4 27q0 18 -25 18h-33l5 22q79 2 132 35h7l-32 -165h3q38 28 82 28q49 0 84 -35.5t35 -104.5q0 -95 -53 -175q-57 -86 -135 -86q-46 0 -79 29
h-4zM349 269l-24 -126q-11 -53 -11 -65q0 -29 13.5 -42t43.5 -13q40 0 62 28.5t40 98.5q24 98 24 148q0 12 -1.5 20t-7 19.5t-20.5 18t-37 6.5q-65 0 -82 -93zM255 142l24 125q18 95 -50 95t-93 -90q-9 -34 -20 -95.5t-11 -89.5q0 -64 56 -64q43 0 62.5 28.5t31.5 90.5z" />
    <glyph glyph-name="afii10087" unicode="&#x445;" horiz-adv-x="419" 
d="M61 334q46 59 91 59q16 0 28 -10.5t16 -20t11 -27.5l28 -81q8 14 21 36t18.5 32t15 25t15.5 21t14 13t16 9.5t17 2.5q19 0 30.5 -9.5t11.5 -23.5t-8.5 -25.5t-23.5 -11.5q-8 0 -20 7q-10 5 -12 5q-8 0 -16.5 -8t-14 -16.5t-16.5 -26.5q-7 -12 -15.5 -27t-21.5 -36
l46 -134q1 -3 3.5 -10t3.5 -10l3 -9t4 -8.5t5 -7t5.5 -6t6.5 -3t9 -1.5q14 0 32 10l9 -14q-48 -36 -75 -36q-10 0 -18.5 2.5t-15 9l-11 11t-9.5 16.5t-7.5 17t-7.5 20t-6 19l-20 58h-3q-9 -15 -47 -73q-36 -54 -61 -69q-18 -11 -36 -11q-23 0 -32 13.5t-9 28.5t13 27t39 6
q11 -3 21 -3q31 0 64 49q17 25 39 66l-43 126q-4 14 -6.5 20t-9 13t-14.5 7q-17 0 -47 -25z" />
    <glyph glyph-name="afii10088" unicode="&#x446;" horiz-adv-x="496" 
d="M368 385h70l-58 -279q0 -1 -2 -11t-3.5 -18.5t-1.5 -12.5q0 -17 13 -17q4 0 12 2l12 3t13 1q21 0 32 -14.5t11 -33.5q0 -53 -47 -104t-120 -51q-38 0 -66 8q-37 10 -80.5 28t-56.5 18t-25 -5.5t-14 -14.5q15 -2 23 -12t8 -22q0 -14 -10 -24t-24 -10q-13 0 -23.5 9
t-10.5 25q0 36 32.5 61t87.5 25q17 0 33.5 -2.5t26 -5t26.5 -8t25 -7.5q44 -13 78 -13q54 0 84.5 37.5t30.5 70.5q0 21 -24 21q-10 0 -28 -11q-2 -1 -7 -5t-8 -6t-8.5 -5t-10 -5t-11 -3.5t-12.5 -1.5q-34 0 -34 39q0 29 5 54l10 54h-6q-38 -53 -93 -100t-106 -47
q-62 0 -62 59q0 14 3 29l43 205q5 25 5 29q0 22 -25 22h-32l5 22q84 4 132 35h8l-63 -300q-4 -18 -4 -26q0 -22 21 -22q56 0 141 112q51 68 66 139z" />
    <glyph glyph-name="afii10089" unicode="&#x447;" horiz-adv-x="471" 
d="M35 358q84 4 132 35h9l-28 -133q-5 -30 -5 -41q0 -46 38 -46q40 0 84 47q54 58 62 99l14 66h70l-64 -307q-3 -18 -3 -20q0 -21 22 -21q17 0 50 21l15 -16q-51 -50 -105 -50q-19 0 -31.5 5t-16.5 14.5t-5 15t-1 14.5q0 15 5 37l31 145h-5q-29 -39 -71 -67t-81 -28
q-40 0 -60 23t-20 54q0 14 7 55q10 51 10 54q0 22 -25 22h-33z" />
    <glyph glyph-name="afii10090" unicode="&#x448;" horiz-adv-x="735" 
d="M605 385h70l-64 -307q-3 -18 -3 -20q0 -21 22 -21q17 0 50 21l15 -16q-51 -50 -105 -50t-54 43q0 18 5 43l12 61h-6q-44 -59 -98 -103t-101 -44q-30 0 -46 15.5t-16 43.5q0 14 3 29l12 55h-5q-119 -143 -198 -143q-31 0 -46.5 16t-15.5 43q0 9 4 29l42 205q5 23 5 29
q0 22 -23 22h-34l5 22q84 4 132 35h8l-63 -300q-4 -18 -4 -26q0 -22 21 -22q49 0 118 81t82 145l24 114h70l-61 -292q-4 -18 -4 -26q0 -22 21 -22q56 0 141 112q51 68 66 139z" />
    <glyph glyph-name="afii10091" unicode="&#x449;" horiz-adv-x="726" 
d="M605 385h70l-58 -280q-7 -35 -7 -41q0 -19 11 -19q2 0 8.5 3t15.5 4q4 1 13 1q20 0 31.5 -14.5t11.5 -33.5q0 -38 -43 -83q-72 -74 -184 -74q-62 0 -139 28q-74 28 -113 28q-44 0 -49 -20q15 -2 23 -12t8 -22q0 -14 -10 -24t-24 -10q-13 0 -23.5 9t-10.5 25q0 35 32.5 62
t102.5 27q16 0 32 -1.5t27 -2.5t27 -4.5t22.5 -5t24 -6.5t22.5 -6q54 -15 98 -15q71 0 113 37.5t42 72.5q0 21 -24 21q-12 0 -28 -11q-1 -1 -6.5 -5t-8 -6t-8 -5.5t-9.5 -5t-10 -3t-12 -1.5q-16 0 -24.5 7.5t-9.5 14.5t-1 20q0 30 7 63l8 42h-6q-44 -59 -98 -103t-101 -44
q-30 0 -46 15.5t-16 43.5q0 14 3 29l12 55h-5q-119 -143 -198 -143q-31 0 -46.5 16t-15.5 43q0 9 4 29l42 205q5 23 5 29q0 22 -23 22h-34l5 22q84 4 132 35h8l-63 -300q-4 -18 -4 -26q0 -22 21 -22q49 0 118 81t82 145l24 114h70l-61 -292q-4 -18 -4 -26q0 -22 21 -22
q56 0 141 112q51 68 66 139z" />
    <glyph glyph-name="afii10092" unicode="&#x44a;" horiz-adv-x="507" 
d="M75 222l-13 -11q-32 31 -32 73q0 50 30 79.5t79 29.5q8 0 26 -2q16 -2 36 -6t33.5 -6t25.5 -2q27 0 51 16l10 -7q-8 -13 -19.5 -34t-16.5 -29q-25 -39 -56 -86l4 -3q56 46 118 46q53 0 84.5 -30.5t31.5 -74.5q0 -41 -17 -72q-25 -48 -79.5 -79.5t-116.5 -31.5
q-41 0 -70.5 12.5t-43.5 32t-20 38.5t-6 38q0 42 51 110q9 12 35.5 41.5t47.5 55.5l-7 7q-18 -9 -31 -9q-26 0 -31 1l-17.5 3.5t-24.5 4t-23 1.5q-29 0 -44 -16t-15 -37q0 -27 20 -53zM189 87q0 -29 18.5 -46.5t51.5 -17.5q56 0 94.5 46t38.5 99q0 29 -16.5 48.5t-47.5 19.5
q-57 0 -98 -46.5t-41 -102.5z" />
    <glyph glyph-name="afii10093" unicode="&#x44b;" horiz-adv-x="609" 
d="M35 358q84 4 132 35h9l-33 -160h6q59 47 123 47q50 0 79 -31.5t29 -79.5q0 -79 -66 -129q-62 -48 -146 -48q-123 0 -123 90q0 18 13 81l25 122q5 27 5 29q0 22 -25 22h-33zM180 23q31 0 60 21.5t46 69.5q12 36 12 55q0 36 -15 54.5t-40 18.5q-33 0 -67 -26t-49 -80
q-7 -24 -7 -44q0 -34 17.5 -51.5t42.5 -17.5zM569 42q-51 -50 -105 -50q-19 0 -31.5 5t-16.5 14.5t-5 15t-1 14.5q0 15 5 37l44 207q5 25 5 29q0 22 -25 22h-33l5 22q84 4 132 35h9l-67 -315q-3 -18 -3 -20q0 -21 22 -21q17 0 50 21z" />
    <glyph glyph-name="afii10094" unicode="&#x44c;" horiz-adv-x="420" 
d="M35 358q84 4 132 35h9l-33 -160h6q59 47 123 47q50 0 79 -31.5t29 -79.5q0 -34 -16 -68q-19 -40 -59 -66t-76.5 -34.5t-70.5 -8.5q-62 0 -91 29q-22 22 -22 61q0 18 13 81l25 122q5 27 5 29q0 22 -25 22h-33zM180 23q30 0 59.5 21.5t46.5 68.5q12 31 12 56q0 36 -15 54.5
t-40 18.5q-33 0 -67 -26t-49 -80q-7 -24 -7 -44q0 -34 17.5 -51.5t42.5 -17.5z" />
    <glyph glyph-name="afii10095" unicode="&#x44d;" horiz-adv-x="403" 
d="M96 172l-11 11q37 54 85 54q10 0 18.5 -2t20 -7t15.5 -7q13 -5 32 -5q32 0 32 50q0 42 -24.5 69t-65.5 27q-74 0 -112 -89h-22l15 115h19q0 -14 17 -14q5 0 35 9q28 10 60 10q68 0 110.5 -43t42.5 -122q0 -46 -19 -92q-22 -55 -72.5 -99.5t-128.5 -44.5q-64 0 -96 25.5
t-32 56.5q0 13 8 23t23 10q35 0 39 -40q5 -44 56 -44q46 0 90 38.5t57 132.5l-3 4q-28 -28 -64 -28q-13 0 -30 5q-1 0 -20.5 9t-29.5 9q-21 0 -45 -21z" />
    <glyph glyph-name="afii10096" unicode="&#x44e;" horiz-adv-x="600" 
d="M146 224h58q18 72 73.5 120.5t122.5 48.5t111 -44q49 -49 49 -130q0 -85 -51 -150q-61 -77 -157 -77q-72 0 -114.5 49.5t-42.5 128.5q0 7 2 23h-57l-40 -193h-70l59 285q5 25 5 29q0 22 -24 22h-33l5 22q84 4 132 35h8zM400 362q-69 0 -105 -88q-25 -61 -25 -140
q0 -40 11 -66q20 -45 71 -45q69 0 102 71q31 66 31 160q0 52 -21 79q-23 29 -64 29z" />
    <glyph glyph-name="afii10097" unicode="&#x44f;" horiz-adv-x="474" 
d="M434 385l-6 -29h-9q-10 0 -14.5 -1.5t-10 -11.5t-10.5 -31l-50 -234q-3 -18 -3 -20q0 -21 22 -21q17 0 50 21l15 -16q-51 -50 -105 -50q-19 0 -31.5 5t-16.5 14.5t-5 15t-1 14.5q0 5 5 37l18 98q-25 1 -44.5 -7t-33.5 -23t-24.5 -31.5t-22.5 -38.5q-3 -5 -4 -8
q-10 -19 -16.5 -27.5t-21.5 -22.5t-39 -20t-58 -6q-18 0 -27 1v18q22 4 38 16t22.5 21.5t19.5 31.5q14 25 26 40.5t36 33t53 22.5v4q-41 4 -70 25t-37 48q-3 8 -3 26q0 21 13 42q39 64 187 64h158zM291 207l21 104q4 16 4 21q0 12 -9 17t-37 5q-15 0 -29.5 -2t-37.5 -9
t-37.5 -26.5t-14.5 -49.5q0 -60 103 -60h37z" />
    <glyph glyph-name="afii10071" unicode="&#x451;" horiz-adv-x="377" 
d="M311 109l19 -15q-71 -102 -162 -102q-37 0 -65 14.5t-43 38.5t-22.5 51t-7.5 55t12 64q24 77 81.5 127.5t118.5 50.5q37 0 60.5 -20.5t23.5 -49.5q0 -41 -32 -76t-97 -35q-29 0 -50 5l6 26q18 -2 27 -2q38 0 65 22t27 56q0 24 -15.5 33.5t-30.5 9.5q-36 0 -69 -33.5
t-48 -87.5q-9 -35 -9 -70q0 -64 26 -95.5t65 -31.5q66 0 120 65zM86 565q0 20 14 34t34 14t34 -14t14 -34t-14 -34t-34 -14t-34 14t-14 34zM241 565q0 20 14 34t34 14t34 -14t14 -34t-14 -34t-34 -14t-34 14t-14 34z" />
    <glyph glyph-name="afii10099" unicode="&#x452;" horiz-adv-x="449" 
d="M103 655q84 4 132 35h9l-35 -169h155l-7 -31h-155l-28 -137h4q62 40 125 40q106 0 106 -117q0 -66 -16.5 -142.5t-47 -149t-82 -120.5t-113.5 -48q-31 0 -52 14t-21 43q0 22 13 36t32 14t28 -10t9 -22q0 -13 -4 -19.5t-4 -10.5q0 -2 1 -5t6 -6t12 -3q39 0 71.5 52
t50.5 125.5t27.5 139t9.5 105.5q0 36 -14.5 57.5t-55.5 21.5q-50 0 -93 -31l-66 -317h-70l102 490h-64l6 31h64l13 61q5 25 5 29q0 22 -25 22h-33z" />
    <glyph glyph-name="afii10100" unicode="&#x453;" horiz-adv-x="362" 
d="M38 301l-13 13q45 48 99 69q27 10 60 10q37 0 59.5 -21t22.5 -55q0 -15 -4.5 -30t-16 -35t-18.5 -30.5t-25.5 -36.5t-23.5 -33q-37 -51 -37 -80q0 -33 38 -33q47 0 107 58l14 -13q-82 -92 -158 -92q-9 0 -19 2t-27.5 8t-28.5 23t-11 43q0 10 2.5 21t5 19.5t9.5 21
t10.5 19t14 21t14.5 19.5t17.5 22t17.5 22q37 48 41 70q5 24 -9 36.5t-36 12.5q-42 0 -105 -51zM153 519l118 130q18 20 42 20q17 0 26 -10t7 -27t-19 -32q-13 -10 -33 -21l-130 -76z" />
    <glyph glyph-name="afii10101" unicode="&#x454;" horiz-adv-x="432" 
d="M392 389l-13 -109h-22q-9 45 -40 63.5t-68 18.5q-49 0 -87.5 -40.5t-44.5 -117.5h3q45 42 96 42q12 0 56 -18q30 -13 38 -13q20 0 37 10l7 -15q-43 -45 -86 -45q-11 0 -31 8q-3 1 -17 7.5t-24 9.5t-20 3q-29 0 -42 -8q-24 -14 -24 -45q0 -41 31 -74.5t80 -33.5
q70 0 133 57l15 -18q-77 -79 -171 -79q-69 0 -118.5 47t-49.5 125q0 76 43 138q27 38 73.5 64.5t100.5 26.5q35 0 63 -7.5t41 -7.5q12 0 25 11h16z" />
    <glyph glyph-name="afii10102" unicode="&#x455;" horiz-adv-x="342" 
d="M201 393q41 0 71 -20t30 -45q0 -14 -9 -24t-23 -10q-5 0 -10 1.5t-8 3t-6.5 4.5t-5 5.5t-3.5 6.5t-2.5 6t-2 6t-1.5 5q-9 30 -48 30q-21 0 -34 -10.5t-16 -25.5q-5 -24 19 -51q6 -7 13.5 -13.5t17 -14t14.5 -11.5q83 -68 83 -134q0 -44 -39 -77t-101 -33q-52 0 -83.5 27
t-31.5 60q0 17 10.5 29t29.5 12t28.5 -16.5t1.5 -35.5q-5 -13 -5 -15q0 -30 50 -30q35 0 56 17.5t21 41.5q0 10 -4 20.5t-8 18t-14.5 18.5t-15.5 15.5t-19.5 17t-17.5 15.5q-65 57 -65 107q0 35 31.5 67t96.5 32z" />
    <glyph glyph-name="afii10103" unicode="&#x456;" horiz-adv-x="233" 
d="M193 42q-51 -50 -105 -50q-19 0 -31.5 5t-16.5 14.5t-5 15t-1 14.5q0 15 5 37l44 207q5 25 5 29q0 22 -25 22h-33l5 22q84 4 132 35h9l-67 -315q-3 -18 -3 -20q0 -21 22 -21q17 0 50 21zM79 565q0 20 15 35t35 15t35 -15t15 -35t-15 -35t-35 -15t-35 15t-15 35z" />
    <glyph glyph-name="afii10104" unicode="&#x457;" horiz-adv-x="322" 
d="M201 42q-51 -50 -105 -50q-19 0 -31.5 5t-16.5 14.5t-5 15t-1 14.5q0 15 5 37l44 207q5 25 5 29q0 22 -25 22h-33l5 22q84 4 132 35h9l-67 -315q-3 -18 -3 -20q0 -21 22 -21q17 0 50 21zM30 573q0 17 13.5 32.5t35.5 15.5q20 0 34 -14t14 -34q0 -22 -15.5 -35.5
t-32.5 -13.5q-19 0 -34 15t-15 34zM185 573q0 17 13 32.5t36 15.5q22 0 35 -15.5t13 -32.5q0 -19 -14.5 -34t-33.5 -15q-20 0 -34.5 15t-14.5 34z" />
    <glyph glyph-name="afii10105" unicode="&#x458;" horiz-adv-x="270" 
d="M79 358q84 4 132 35h9l-79 -393l-11 -60q-17 -89 -38 -113t-56 -24q-25 0 -38 14.5t-13 32.5q0 19 10 30.5t25 11.5q20 0 28 -15t4 -27v-2l-1 -2q0 -8 10 -8q9 0 17 10.5t12 34.5t-6 64q-14 61 -7 96l50 242q5 25 5 29q0 22 -25 22h-33zM117 565q0 18 13.5 33t36.5 15
t36.5 -15t13.5 -33q0 -20 -15 -34.5t-35 -14.5t-35 14.5t-15 34.5z" />
    <glyph glyph-name="afii10106" unicode="&#x459;" horiz-adv-x="707" 
d="M430 233h6q59 47 123 47q50 0 79 -31.5t29 -79.5q0 -79 -66 -129q-27 -20 -67.5 -34t-77.5 -14q-123 0 -123 90q0 19 5 44l35 165q4 14 4 21q0 33 -29 35q-19 1 -36.5 -12.5t-35.5 -45t-24.5 -45.5t-21.5 -51q-3 -6 -4 -9q-44 -106 -76 -149t-71 -43q-21 0 -35 12t-14 31
q0 16 12 27.5t29 11.5q8 0 20 -5q3 -1 7.5 -4.5t8.5 -5.5t7 -2q7 0 14.5 6t15.5 17.5t15 23t15 28t12 25.5t10.5 23.5t6.5 15.5q47 104 68 135q44 62 108 62q38 0 54.5 -17t16.5 -38q0 -13 -6 -41zM467 23q31 0 60 21.5t46 69.5q12 36 12 55q0 36 -15 54.5t-40 18.5
q-49 0 -86 -47t-37 -110q0 -31 18.5 -46.5t41.5 -15.5z" />
    <glyph glyph-name="afii10107" unicode="&#x45a;" horiz-adv-x="667" 
d="M359 385h70l-31 -149h3q57 44 118 44q50 0 79 -31.5t29 -79.5t-30 -91.5t-93 -67.5q-50 -18 -78 -18q-82 0 -108 29q-18 19 -18 61q0 12 15 89l6 30h-5q-28 -23 -61 -23q-21 0 -47 13q-24 12 -39 12q-18 0 -30 -16l-39 -187h-70l60 285q5 25 5 29q0 22 -25 22h-33l5 22
q84 4 132 35h9l-36 -169h6q31 19 56 19q17 0 45 -15q18 -10 27 -10q13 0 27.5 7.5t20.5 16.5zM427 23q45 0 75 36q17 20 30 51t13 59q0 36 -15 54.5t-40 18.5q-39 0 -78.5 -38.5t-39.5 -121.5q0 -32 17.5 -45.5t37.5 -13.5z" />
    <glyph glyph-name="afii10108" unicode="&#x45b;" horiz-adv-x="481" 
d="M103 655q84 4 132 35h9l-35 -169h155l-7 -31h-155l-33 -159h5q71 62 152 62q36 0 58.5 -20t22.5 -56q0 -21 -8 -56l-42 -183q-3 -11 -3 -20q0 -21 22 -21q17 0 50 21l15 -16q-51 -50 -105 -50q-55 0 -55 49q0 11 6 37l42 189q6 26 6 40q0 8 -1 14t-12.5 15.5t-33.5 9.5
q-39 0 -77.5 -24t-54.5 -54l-56 -268h-70l102 490h-64l6 31h64l13 61q5 25 5 29q0 22 -25 22h-33z" />
    <glyph glyph-name="afii10109" unicode="&#x45c;" horiz-adv-x="462" 
d="M143 206l-43 -206h-70l60 285q5 25 5 29q0 22 -25 22h-33l5 22q84 4 132 35h8l-33 -159q27 0 51 12t36 24t29 33q2 2 10 13t11.5 15t12.5 14t14.5 15t14.5 12.5t16.5 11t17.5 6.5t19 3q20 0 37 -11l-20 -92h-13q-11 42 -36 42q-6 0 -12.5 -3t-12.5 -8.5t-10.5 -10
t-10.5 -12.5t-8 -10q-25 -32 -81 -63v-4q34 -6 58 -31t35 -59l19 -59q5 -17 8.5 -25t14 -16t26.5 -8q14 0 49 17l8 -15q-45 -33 -94 -33q-72 0 -94 85l-17 65q-7 29 -25 46.5t-38 17.5h-21zM221 519l118 130q18 20 42 20q17 0 26 -10t7 -27t-19 -32q-13 -10 -33 -21
l-130 -76z" />
    <glyph glyph-name="afii10110" unicode="&#x45e;" horiz-adv-x="478" 
d="M40 358q84 4 132 35h9l-55 -266q-5 -22 -5 -48q0 -21 14 -31.5t34 -10.5q45 0 107 48q6 5 11.5 11.5t9.5 11t7.5 12.5t5.5 11.5t4.5 13.5t3.5 12.5t3.5 14t2.5 12.5l22 102q5 22 5 28q0 22 -24 22h-33l5 22q84 4 132 35h7l-65 -309q-20 -98 -52 -159t-96 -92
q-36 -17 -67 -17q-46 0 -87 21.5t-41 57.5q0 20 11 33.5t27 13.5q35 0 39 -34v-25q0 -18 13 -27t32 -9q89 0 128 139q3 11 8 32t11 42h-6q-86 -68 -148 -68q-42 0 -69 23.5t-27 68.5q0 23 4 42l34 159q5 27 5 29q0 22 -24 22h-33zM292 523q83 0 107 33q11 17 5.5 29
t-15.5 12q-6 0 -13 -11t-21 -11q-26 0 -26 24q0 30 37 30q29 0 49 -17.5t20 -43.5q0 -33 -37.5 -58t-105.5 -25t-105.5 25t-37.5 58q0 26 20 43.5t49 17.5q37 0 37 -30q0 -24 -26 -24q-14 0 -21 11t-13 11q-10 0 -15.5 -12t5.5 -29q24 -33 107 -33z" />
    <glyph glyph-name="afii10193" unicode="&#x45f;" horiz-adv-x="485" 
d="M355 385h70l-64 -307q-3 -18 -3 -20q0 -21 22 -21q17 0 50 21l15 -16q-51 -50 -105 -50t-54 43q0 18 5 43l12 61h-6q-38 -53 -93 -100t-106 -47q-31 0 -46.5 16t-15.5 43q0 9 4 29l42 205q5 23 5 29q0 22 -23 22h-34l5 22q84 4 132 35h8l-63 -300q-4 -18 -4 -26
q0 -17 13 -21q3 -1 8 -1q56 0 141 112q51 68 66 139zM129 -170q37 18 37 51q0 3 -0.5 9t-0.5 9q-1 7 -1 21q0 35 21 58.5t54 27.5l7 -15q-29 -10 -29 -54q0 -5 0.5 -15.5t0.5 -15.5q0 -69 -83 -90z" />
    <glyph glyph-name="afii10050" unicode="&#x490;" horiz-adv-x="588" 
d="M10 -2l7 34q33 4 50 22t25 57l100 477q2 11 4 26v14q-5 34 -48 38l7 34h206q82 0 123.5 24.5t62.5 100.5h31l-37 -172q-79 8 -139 8h-105l-116 -552q-4 -16 -4 -32q0 -39 46 -45l-7 -34h-206z" />
    <glyph glyph-name="afii10098" unicode="&#x491;" horiz-adv-x="376" 
d="M66 385h138q22 0 32 0.5t28 5t29 13.5t25 27t26 45h22l-26 -122h-165l-74 -354h-71l60 290q4 22 4 42q0 26 -34 31z" />
    <glyph glyph-name="endash" unicode="&#x2013;" horiz-adv-x="757" 
d="M70 180v50h617v-50h-617z" />
    <glyph glyph-name="emdash" unicode="&#x2014;" horiz-adv-x="892" 
d="M822 230l-9 -42h-743l9 42h743z" />
    <glyph glyph-name="quoteleft" unicode="&#x2018;" horiz-adv-x="252" 
d="M164 708l12 -22q-37 -21 -61 -58l3 -3q8 2 13 2q20 0 35.5 -16t15.5 -40q0 -25 -17 -40.5t-39 -15.5t-39 17t-17 50q0 44 28.5 76t65.5 50z" />
    <glyph glyph-name="quoteright" unicode="&#x2019;" horiz-adv-x="252" 
d="M88 516l-12 22q37 21 61 58l-3 3q-8 -2 -13 -2q-20 0 -35.5 16t-15.5 40q0 25 17 40.5t39 15.5t39 -17t17 -50q0 -74 -94 -126z" />
    <glyph glyph-name="quotesinglbase" unicode="&#x201a;" horiz-adv-x="253" 
d="M88 -90l-12 22q37 21 61 58l-3 3q-6 -2 -8 -2q-21 0 -38.5 15.5t-17.5 40.5t17 40.5t39 15.5t39.5 -17t17.5 -47q0 -76 -95 -129z" />
    <glyph glyph-name="quotedblleft" unicode="&#x201c;" horiz-adv-x="412" 
d="M324 708l12 -22q-37 -21 -61 -58l3 -3q8 2 13 2q20 0 35.5 -16t15.5 -40q0 -25 -17 -40.5t-39 -15.5t-39 17t-17 49q0 74 94 127zM164 708l12 -22q-37 -21 -61 -58l3 -3q24 7 44 -10t20 -44q0 -25 -17 -40.5t-39 -15.5q-20 0 -38 15.5t-18 48.5q0 76 94 129z" />
    <glyph glyph-name="quotedblright" unicode="&#x201d;" horiz-adv-x="412" 
d="M88 516l-12 22q37 21 61 58l-3 3q-6 -2 -8 -2q-21 0 -38.5 15.5t-17.5 40.5t17 40.5t39 15.5t39 -17t17 -49q0 -74 -94 -127zM248 516l-12 22q37 21 61 58l-3 3q-23 -8 -43.5 10t-20.5 44q0 25 17 40.5t39 15.5q20 0 38 -15.5t18 -48.5q0 -76 -94 -129z" />
    <glyph glyph-name="quotedblbase" unicode="&#x201e;" horiz-adv-x="412" 
d="M88 -90l-12 22q37 21 61 58l-3 3q-8 -2 -11 -2q-21 0 -37 16t-16 40q0 25 17 40.5t39 15.5t39 -17t17 -49q0 -74 -94 -127zM248 -90l-12 22q37 21 61 58l-3 3q-24 -7 -44 10t-20 44q0 25 17 40.5t39 15.5q20 0 38 -15.5t18 -47.5q0 -76 -94 -130z" />
    <glyph glyph-name="dagger" unicode="&#x2020;" horiz-adv-x="572" 
d="M331 708q21 0 38.5 -15.5t16.5 -44.5q-50 -27 -76 -143q6 -3 9 -8h11q80 1 125 46q47 -13 47 -59q0 -30 -20.5 -49t-53.5 -15q-22 45 -85 45q-17 0 -25 -1q-5 -9 -17 -14q-13 -72 27 -121q-70 -128 -114 -342l-39 -189h-38l34 189q6 30 13 83t12.5 135t-5.5 124
q28 23 49 58.5t24 63.5q-9 3 -9 13q-85 9 -128 -44q-23 -3 -40 8.5t-17 34.5q0 28 22 52t55 28q17 -25 42 -35t73 -12q5 5 15 9q8 56 8 66q0 56 -28 77q8 30 29.5 45t44.5 15z" />
    <glyph glyph-name="daggerdbl" unicode="&#x2021;" horiz-adv-x="557" 
d="M428 707q26 0 41 -15t11 -37q-59 -35 -82 -159q10 -4 12 -17q90 7 137 48q51 -7 39 -59q-6 -25 -23 -42t-42 -21q-16 20 -49 32.5t-68 13.5q-8 -11 -18 -14q-15 -65 -15 -100q0 -41 24 -83q-44 -45 -58 -78.5t-29 -104.5q12 -3 12 -14q35 1 74 13.5t63 32.5
q48 -10 39 -63q-5 -27 -24 -41.5t-41 -17.5q-31 42 -117 48q-5 -12 -18 -17q-12 -41 -12 -92q0 -48 26 -67q-6 -23 -27 -37.5t-47 -14.5q-28 0 -43 17t-8 35q61 42 82 159q-10 4 -12 17q-90 -7 -137 -48q-40 6 -40 31q0 30 16.5 58t49.5 33q16 -20 49 -32.5t68 -13.5
q8 11 18 14q15 65 15 100q0 41 -24 83q44 45 58 78.5t29 104.5q-12 3 -12 14q-35 -1 -74 -13.5t-63 -32.5q-39 8 -39 63q0 27 20.5 41.5t44.5 17.5q31 -42 117 -48q5 12 18 17q12 40 12 92q0 43 -26 67q2 21 25 36.5t48 15.5z" />
    <glyph glyph-name="bullet" unicode="&#x2022;" horiz-adv-x="296" 
d="M70 312q0 33 22.5 55.5t55.5 22.5t55.5 -22.5t22.5 -55.5t-22.5 -55.5t-55.5 -22.5t-55.5 22.5t-22.5 55.5z" />
    <glyph glyph-name="ellipsis" unicode="&#x2026;" horiz-adv-x="752" 
d="M70 48q0 22 17 39t39 17t39 -17t17 -39t-17 -39t-39 -17t-39 17t-17 39zM320 48q0 22 17 39t39 17t39 -17t17 -39t-17 -39t-39 -17t-39 17t-17 39zM570 48q0 22 17 39t39 17t39 -17t17 -39t-17 -39t-39 -17t-39 17t-17 39z" />
    <glyph glyph-name="perthousand" unicode="&#x2030;" horiz-adv-x="1309" 
d="M247 687q51 0 98 -34q51 -37 128 -37q54 0 108 39q15 11 28 25t21 21t16 7q12 0 22.5 -9t10.5 -20q0 -8 -6 -18.5t-21.5 -36t-30.5 -56.5q-65 -137 -104 -214t-50.5 -98t-49.5 -101t-111 -243l-110 -46q15 26 69 116.5t79 134.5t72 128.5t91 173.5t92 194l-5 4
q-75 -41 -118 -41q-48 0 -98 15l-7 -4q4 -20 4 -46q0 -88 -47 -166t-120 -78q-57 0 -97.5 42t-40.5 119q0 86 51 157.5t126 71.5zM260 641q-38 0 -65.5 -41t-38.5 -88t-11 -86q0 -46 20.5 -65.5t43.5 -19.5q45 0 82.5 65t37.5 146q0 89 -69 89zM734 332q56 0 92 -38.5
t36 -111.5q0 -53 -19 -107t-58.5 -93.5t-89.5 -39.5q-57 0 -97.5 42t-40.5 119q0 87 51 158t126 71zM747 286q-38 0 -65.5 -41t-38.5 -88t-11 -86q0 -46 20.5 -65.5t43.5 -19.5q58 0 93 86q27 64 27 112q0 30 -6.5 51t-14 30.5t-20 15t-17 5.5h-11.5zM1111 332
q56 0 92 -38.5t36 -111.5q0 -53 -19 -107t-58.5 -93.5t-89.5 -39.5q-57 0 -97.5 42t-40.5 119q0 87 51 158t126 71zM1124 286q-38 0 -65.5 -41t-38.5 -88t-11 -86q0 -46 20.5 -65.5t43.5 -19.5q58 0 93 86q27 64 27 112q0 30 -6.5 51t-14 30.5t-20 15t-17 5.5h-11.5z" />
    <glyph glyph-name="guilsinglleft" unicode="&#x2039;" horiz-adv-x="273" 
d="M93 203l80 -147l-26 -17l-117 164l186 164l17 -16z" />
    <glyph glyph-name="guilsinglright" unicode="&#x203a;" horiz-adv-x="273" 
d="M126 367l117 -164l-186 -164l-17 16l140 148l-80 147z" />
    <glyph glyph-name="fraction" unicode="&#x2044;" horiz-adv-x="163" 
d="M392 698l-576 -735l-23 21l574 732z" />
    <glyph glyph-name="Euro" unicode="&#x20ac;" horiz-adv-x="547" 
d="M565 570h-20q4 49 -26 73.5t-84 24.5q-85 0 -138.5 -63t-89.5 -186h274l-23 -36h-261q-6 -27 -7 -32q-7 -30 -7 -33h234l-22 -36h-218q-18 -122 13 -186.5t110 -64.5q51 0 92 24t60 76h20l-22 -79q-59 -59 -176 -59q-225 0 -185 289h-69l23 36h49q1 4 3.5 16.5l3.5 17.5
q0 4 1.5 9.5t3 12t2.5 9.5h-64l22 36h53q45 145 117 217t192 72q116 0 151 -57z" />
    <glyph glyph-name="afii61289" unicode="&#x2113;" horiz-adv-x="401" 
d="M330 119l15 -17q-80 -108 -183 -108q-67 0 -90 39q-24 43 -2 145l17 84l-68 -45l-8 23l84 58l27 128q27 126 48 179t60 89q46 46 93 46q42 0 56.5 -37.5t2.5 -93.5q-31 -146 -207 -297l-21 -95q-18 -100 -5 -135t58 -35q60 0 123 72zM211 485l-27 -128q54 52 95 119
t55 132q10 44 3.5 73.5t-28.5 29.5q-28 0 -50 -51t-48 -175z" />
    <glyph glyph-name="afii61352" unicode="&#x2116;" horiz-adv-x="1124" 
d="M294 699h139l179 -523h4l80 325q13 56 24 87.5t29.5 65t46 48t66.5 14.5q33 0 51 -14t18 -34q0 -19 -11 -31.5t-26 -12.5q-22 0 -47 16q-14 10 -32 10q-7 0 -14 -2.5t-12.5 -8t-9.5 -10.5t-8.5 -15t-7 -16.5t-6 -19.5t-5.5 -19.5t-5.5 -21t-4.5 -20.5l-128 -517h-31
l-193 564h-6l-97 -402q-9 -37 -19 -63.5t-25.5 -53t-39.5 -40t-56 -13.5q-36 0 -56.5 17t-20.5 41q0 25 21 39.5t45 2.5q7 -4 16 -11t17 -11t18 -4q13 0 23.5 9t18 28.5t10.5 28.5t8 30l99 408q9 37 9 69q0 14 -21 22t-47 4zM932 506q50 0 86 -35.5t36 -99.5
q0 -74 -51 -130.5t-121 -56.5q-46 0 -84.5 33.5t-38.5 107.5q0 47 32 98q28 45 67 64t74 19zM934 478q-43 0 -66 -42t-36 -116q-5 -23 -5 -42q0 -36 16.5 -51t36.5 -15q34 0 53.5 26.5t34.5 78.5q18 67 18 97q0 64 -52 64zM761 110h226l-11 -55h-227z" />
    <glyph glyph-name="trademark" unicode="&#x2122;" horiz-adv-x="822" 
d="M70 629v71q70 -3 140 -3q68 0 136 3v-71h-18q-6 38 -46 38h-48v-213v-5v-5.5t0.5 -5.5t2.5 -6t4.5 -5t7 -5t10.5 -3v-18h-102v18q25 3 25 35v213h-49q-40 0 -45 -38h-18zM573 493h4l83 204h92v-19q-12 -1 -18.5 -8.5t-6.5 -16.5v-199q0 -29 25 -35v-18h-102v18
q25 7 25 35v207h-3l-109 -263h-21l-108 274h-4v-226q0 -9 7.5 -17.5t17.5 -9.5v-18h-80v18q25 8 25 26v207q0 26 -25 26v19h117z" />
    <glyph glyph-name="Omega" unicode="&#x2126;" horiz-adv-x="716" 
d="M652 139l-54 -139h-230l-2 18q6 8 40.5 53t51.5 70.5t44.5 69t44.5 85.5t26 84q31 149 -10 220t-123 71q-86 0 -154.5 -71.5t-100.5 -224.5q-8 -39 -9 -78.5t3 -72.5t13.5 -69.5t18 -62.5t20.5 -58q4 -11 6 -16l-12 -18h-227l6 139l23 1q5 -47 17.5 -61.5t42.5 -14.5h104
q-13 14 -23 26.5t-24 32.5t-23.5 38.5t-18.5 44.5t-13 52t-3.5 58t7.5 66q31 143 131.5 230.5t224.5 87.5q125 0 186 -83.5t31 -226.5q-11 -51 -36 -100t-62.5 -91.5t-67.5 -71.5t-71 -63h108q32 0 47.5 13t42.5 63z" />
    <glyph glyph-name="estimated" unicode="&#x212e;" horiz-adv-x="953" 
d="M919 339h-643q-6 0 -6 -4v-194q0 -13 9 -23q102 -105 243 -105q153 0 256 118h57q-54 -64 -137 -101t-177 -37q-164 0 -280.5 104t-116.5 252t116.5 252.5t280.5 104.5q165 0 281.5 -104.5t116.5 -252.5v-10zM773 365v195q0 12 -10 24q-103 101 -241 101
q-140 0 -242 -104q-10 -10 -10 -25v-191q0 -7 6 -7h492q5 0 5 7z" />
    <glyph glyph-name="partialdiff" unicode="&#x2202;" horiz-adv-x="519" 
d="M291 435h1q37 0 70 -18t49 -53q20 61 31 106q21 88 7 159q-7 40 -37 70t-74 30q-66 0 -145 -56q-8 -1 -14.5 9.5t-7 24t5.5 25.5q73 42 146 42q129 0 171 -142q29 -95 -1 -232q-30 -149 -100 -253q-102 -153 -232 -153q-81 0 -118 54t-18 147q21 94 93 165q34 33 81 54
t92 21zM303 397h-1q-66 0 -122 -59q-59 -70 -83 -183q-12 -55 7 -93t63 -38q68 0 138 105q47 70 90 193q-6 26 -30.5 50.5t-61.5 24.5z" />
    <glyph glyph-name="Delta" unicode="&#x2206;" horiz-adv-x="622" 
d="M527 0h-551l5 23l395 666l38 11l118 -677zM437 45l-89 533l-312 -533h401z" />
    <glyph glyph-name="product" unicode="&#x220f;" horiz-adv-x="757" 
d="M730 691v-25q-63 -4 -76.5 -14.5t-13.5 -52.5v-583q0 -48 14 -61t74 -17v-25h-250v25q59 5 71 16t12 61v612q0 21 -6.5 26.5t-28.5 5.5h-209q-21 0 -27 -5t-6 -23v-616q0 -49 10 -60.5t65 -16.5v-25h-242v25q59 5 73 17t14 60v584q0 42 -13.5 52.5t-76.5 14.5v25h616z
" />
    <glyph glyph-name="summation" unicode="&#x2211;" horiz-adv-x="629" 
d="M607 93l-42 -182h-449v22l222 349l-217 386v23h444q1 -15 12 -158l-26 -5q-11 67 -32 101q-10 18 -29.5 24.5t-73.5 6.5h-194l187 -325l-222 -354h257q65 0 86.5 17.5t50.5 101.5z" />
    <glyph glyph-name="minus" unicode="&#x2212;" horiz-adv-x="537" 
d="M489 252h-435v55h435v-55z" />
    <glyph glyph-name="radical" unicode="&#x221a;" horiz-adv-x="632" 
d="M614 887l-163 -1033l-19 -10l-214 549l-86 -41l-11 31l151 71l167 -444h2l136 886z" />
    <glyph glyph-name="infinity" unicode="&#x221e;" horiz-adv-x="777" 
d="M729 287v-1q0 -70 -44 -113t-104 -43q-44 0 -84 26t-90 86q-48 -55 -88 -83.5t-93 -28.5q-60 0 -102.5 43.5t-42.5 108.5q0 67 43.5 111t108.5 44q50 0 92 -29.5t85 -82.5q56 62 84 81q44 31 94 31q62 0 101.5 -41.5t39.5 -108.5zM233 180h1q11 0 22 3t19.5 6t20.5 11.5
t17.5 13t18 16.5t16 16t16 18t14.5 16q-25 31 -33.5 40.5t-30.5 31t-42 29t-44 7.5q-43 0 -68.5 -31t-25.5 -76q0 -43 28 -72t71 -29zM582 388h-1q-22 0 -46 -13t-36 -23.5t-37 -38t-26 -28.5q51 -59 81.5 -82t66.5 -23q42 0 67.5 31.5t25.5 70.5q0 49 -26.5 77.5
t-68.5 28.5z" />
    <glyph glyph-name="integral" unicode="&#x222b;" horiz-adv-x="456" 
d="M250 17l-19 412q-19 413 148 413q21 0 39 -11.5t18 -32.5q0 -19 -12 -30t-29 -11q-13 0 -21 11t-14.5 22t-15.5 11q-50 0 -43 -169l18 -384q21 -443 -149 -443q-25 0 -41.5 13.5t-16.5 32.5q-1 18 13.5 31t34.5 13q14 0 26.5 -23t22.5 -23q22 0 33.5 45.5t7.5 122.5z" />
    <glyph glyph-name="approxequal" unicode="&#x2248;" horiz-adv-x="562" 
d="M487 426l34 -29q-47 -94 -125 -94q-43 0 -109 40q-55 32 -87 32q-30 0 -50.5 -18t-42.5 -53l-35 29q22 43 57 68.5t77 25.5q13 0 25.5 -2.5t24.5 -7.5t19.5 -8.5t20 -10.5t15.5 -9q4 -2 15.5 -8.5t15.5 -9t13 -6.5t14.5 -5.5t13 -3t15.5 -1.5q48 0 89 71zM487 260l34 -30
q-47 -93 -125 -93q-42 0 -109 39q-55 33 -87 33q-30 0 -51 -19t-42 -53l-35 30q21 43 57 68t77 25q13 0 25.5 -2t25 -7t19 -8.5t19.5 -11t16 -8.5q1 0 8.5 -5t9 -5.5t8 -4.5t8.5 -5l8 -4t9 -3.5t8.5 -2.5t9 -2.5t8.5 -1t10 -0.5q27 0 47 17t42 54z" />
    <glyph glyph-name="notequal" unicode="&#x2260;" horiz-adv-x="581" 
d="M431 492l-42 -91h144v-53h-165l-61 -137h226v-52h-247l-50 -111l-42 18l41 93h-138v52h160l61 137h-221v53h242l49 110z" />
    <glyph glyph-name="lessequal" unicode="&#x2264;" horiz-adv-x="597" 
d="M547 100l-428 217v56l428 216v-63l-372 -179v-3l372 -181v-63zM550 7h-435v54h435v-54z" />
    <glyph glyph-name="greaterequal" unicode="&#x2265;" horiz-adv-x="597" 
d="M120 589l428 -216v-56l-428 -217v63l372 181v2l-372 180v63zM549 7h-434v54h434v-54z" />
    <glyph glyph-name="lozenge" unicode="&#x25ca;" horiz-adv-x="638" 
d="M590 334l-194 -403h-62l-194 403l195 405h61zM530 334l-163 346h-3l-164 -345l164 -347h3z" />
    </font>
</defs>
</svg>
